<?xml version="1.0" encoding="UTF-8"?>
<svg width="260px" height="222px" viewBox="0 0 260 222" version="1.1" xmlns="http://www.w3.org/2000/svg" xmlns:xlink="http://www.w3.org/1999/xlink">
    <!-- Generator: Sketch 58 (84663) - https://sketch.com -->
    <title>landing_automation</title>
    <desc>Created with Sketch.</desc>
    <g id="Landing" stroke="none" stroke-width="1" fill="none" fill-rule="evenodd">
        <g id="Desktop-/-Landing" transform="translate(-386.000000, -1103.000000)" fill-rule="nonzero">
            <g id="Description" transform="translate(332.000000, 970.000000)">
                <g id="Group" transform="translate(0.000000, 58.000000)">
                    <g id="landing_automation">
                        <rect id="Rectangle" x="0" y="0" width="367" height="371.988672"></rect>
                        <g id="965-[преобразованный]" transform="translate(54.000000, 75.000000)">
                            <path d="M245.741862,104.908875 L136.313936,43 L65,90.6120561 L168.405332,149.113783 C170.494362,150.295406 173.067396,150.295406 175.155594,149.113783 L245.742694,109.179014 C247.419241,108.229641 247.419241,105.857432 245.741862,104.908875 Z" id="Path" fill="#EFEFEF"></path>
                            <g id="Group" transform="translate(87.000000, 34.000000)">
                                <g id="Path">
                                    <path d="M79.8760415,5.53947935 C79.8801792,0.761626387 76.5312684,-1.18530708 72.4111886,1.20028989 L2.37728768,41.747947 C1.24496982,42.4038613 0.32553103,44.0011957 0.323873823,45.3146891 C0.323046061,46.6281825 1.23999988,47.1617371 2.37314606,46.5058228 L72.407047,5.95816577 C74.264976,4.88190029 75.7750093,5.76005967 75.7733526,7.91508778 L75.7658977,15.7852271 C77.1251762,15.7003245 78.4885962,15.6986597 79.8660977,15.7227987 L79.8760415,5.53947935 Z" fill="#FF2C9C"></path>
                                    <path d="M2.34746804,60.6579232 L72.381369,35.013172 C76.5014488,32.627575 79.8569862,26.7992603 79.8611278,22.0214073 L79.8669261,15.7227987 C78.4894245,15.6986597 77.1251762,15.7003245 75.7667261,15.7852271 L75.7592712,24.3961834 C75.7576145,26.5512115 74.244268,29.1790306 72.3863389,30.2552961 L2.35243798,55.9000473 C1.22012012,56.5559616 0.29985301,58.1524637 0.299019653,59.4667895 C0.296539717,60.7802828 1.21432186,61.3138375 2.34746804,60.6579232 Z" fill="#D3008D"></path>
                                </g>
                                <polygon id="Path" fill="#6236FF" points="0.828323232 60.7528144 86.0213677 110.29016 158.150098 67.0639086 163.872983 58.4820856 163.279076 61.5227645 161.740879 53.5618959 27.8515404 58.6935098 4.26172303 57.1660951"></polygon>
                                <polygon id="Path" fill-opacity="0.578725962" fill="#7E72F2" points="3.65373378 45.8032953 3.63054073 56.3420403 85.9691833 104.211299 88.1940595 94.1678195"></polygon>
                                <polygon id="Path" fill="#6F64F8" points="162.811073 50.1732828 77.7538735 0.722504595 1.06522368 45.5377666 0.907013939 46.6390034 86.0901185 96.1621985"></polygon>
                                <path d="M135.695084,75.5683204 L155.69412,63.6469946 C157.378929,62.4566933 158.700105,60.0519516 158.701761,58.0425897 L158.716672,56.4635676 C158.7175,55.1866989 158.185716,54.3634765 157.367333,54.1237515 L117.998786,76.1318407 L85.9393637,93.5560212 L85.968355,104.211299 L135.695084,75.5683204 Z" id="Path" fill="#FFFFFF"></path>
                                <path d="M88.8144736,94.5290718 L4.29651261,45.3921003 L2.50484945,44.3507947 L0.868082747,43.399386 C0.533440162,44.0161785 0.323043768,44.6962318 0.323043768,45.3146891 C0.323043768,45.9606149 0.54586501,46.4150936 0.905357293,46.6348415 L0.906185616,46.6390034 L0.919438788,46.6464948 L0.926065374,46.6498243 L86.0892902,96.1613662 L88.8144736,94.5290718 Z" id="Path" fill="#6236FF"></path>
                                <polygon id="Path" fill="#FFFFFF" points="84.9594573 109.672535 86.0213677 110.29016 86.2176803 109.950549 85.55585 109.426983"></polygon>
                                <polygon id="Path" fill="#FFFFFF" points="84.986792 95.5187699 86.0752087 96.1513776 85.8026903 95.5545622"></polygon>
                                <path d="M87.5595639,91.2711421 L157.593465,50.723485 C161.713545,48.3378881 165.062455,50.2848215 165.057491,55.0626745 L165.042576,56.6416966 C165.038434,61.4195496 161.682897,67.2478643 157.562817,69.6334613 L87.528916,110.181118 C86.3965981,110.837033 85.478816,110.303478 85.4796437,108.989985 C85.4804726,107.676491 86.4007397,106.079157 87.5330576,105.423242 L157.566959,64.8755854 C159.425716,63.7993199 160.938234,61.1715008 160.939891,59.0164727 L160.954801,57.4374505 C160.956457,55.2824224 159.446424,54.404263 157.588495,55.4805285 L87.554594,96.0281856 C86.4222761,96.6840999 85.504494,96.1505452 85.5053223,94.8370519 C85.5078073,93.5243909 86.4272461,91.9270564 87.5595639,91.2711421 Z" id="Path" fill="#6F64F8"></path>
                                <polygon id="Path" fill="#FFFFFF" points="56.3690526 51.9595672 92.7614338 30.8887362 124.323862 49.2385217 87.9314811 70.3085203"></polygon>
                                <g transform="translate(83.660646, 48.277957)" fill="#FFFFFF" id="Path">
                                    <path d="M1.81982614,60.7120278 C1.82065446,59.3985344 2.74092158,57.8012 3.87323943,57.1452857 L73.9071404,16.5976286 C75.7658977,15.5213631 77.278416,12.893544 77.2800726,10.7385159 L77.2949856,9.15949373 C77.2966391,7.74861207 76.6472337,6.88959739 75.6789238,6.76390822 C75.9912017,7.17593561 76.1734328,7.7627625 76.1726044,8.50690894 L76.1576946,10.0859311 C76.156038,12.2409592 74.6426914,14.8687783 72.7839341,15.9450438 L2.75003313,56.4927009 C1.61771527,57.1486152 0.698276485,58.7459496 0.696618865,60.059443 C0.695791515,61.0549678 1.22343341,61.5993434 1.97140929,61.5202674 C1.8753238,61.3005195 1.81982614,61.0299964 1.81982614,60.7120278 Z"></path>
                                    <path d="M1.84550416,46.5599274 C1.84716081,45.2464341 2.7665996,43.6490996 3.89891745,42.9940177 L73.9328184,2.4463606 C75.7070868,1.41920545 77.3363986,1.19945751 78.6186429,1.65893048 C77.2494246,0.485276704 75.1562518,0.43533399 72.8104404,1.79377581 L2.77653947,42.3414329 C1.64422162,42.9973472 0.724782828,44.5946816 0.723125208,45.908175 C0.722297859,46.9036998 1.24993976,47.4480754 1.99791564,47.3689994 C1.90100182,47.1475867 1.84550416,46.877896 1.84550416,46.5599274 Z"></path>
                                </g>
                            </g>
                            <g id="Group" transform="translate(82.000000, 4.000000)">
                                <g id="Path">
                                    <path d="M80.5490138,5.75755633 C80.55316,1.01535898 77.19747,-0.917045131 73.06905,1.45074887 L2.89338,41.6958115 C1.75877,42.3468309 0.83747,43.932245 0.835809438,45.2359362 C0.83498,46.5396273 1.75379,47.0692002 2.88923,46.4181808 L73.0649,6.17311822 C74.92659,5.10488457 76.43968,5.97649052 76.43802,8.11543633 L76.43055,15.9268433 C77.79258,15.8425743 79.15876,15.8409219 80.53905,15.8648808 L80.5490138,5.75755633 Z" fill="#D4ECFF"></path>
                                    <path d="M2.8635,60.4646685 L73.03917,35.011296 C77.16759,32.643502 80.52992,26.8586822 80.53407,22.1164848 L80.53988,15.8648808 C79.15959,15.8409219 77.79341,15.8425743 76.43138,15.9268433 L76.42391,24.4735387 C76.42225,26.6124845 74.90584,29.220693 73.04415,30.2889267 L2.86848,55.7422992 C1.73387,56.3933186 0.81257,57.9787326 0.810907756,59.2824238 C0.80925,60.586115 1.72889,61.1156879 2.8635,60.4646685 Z" fill="#5793CE"></path>
                                </g>
                                <polygon id="Path" fill="#5793CE" points="1.34211 60.5588515 86.70761 109.726515 158.98235 66.8228481 164.71682 58.3050685 164.12171 61.3230558 162.5804 53.4215967 28.42003 58.5149149 4.78246 56.9988988"></polygon>
                                <polygon id="Path" fill="#86B8E0" points="4.17324 45.7208961 4.15 56.1801676 86.65532 103.693019 88.88387 93.7244909"></polygon>
                                <polygon id="Path" fill="#D4ECFF" points="163.65276 50.0582717 78.42338 0.97652914 1.57949 45.4573489 1.42096 46.5495413 86.7765 95.7039866"></polygon>
                                <path d="M136.48188,75.2637941 L156.5214,63.4314334 C158.20962,62.2508411 159.53347,59.8640452 159.53513,57.8688525 L159.550071,56.3016141 C159.5509,55.0342742 159.01804,54.2171953 158.198,53.9792592 L118.74976,75.823109 L86.62544,93.1172584 L86.65449,103.693019 L136.48188,75.2637941 Z" id="Path" fill="#FFFFFF"></path>
                                <path d="M89.50637,94.0830473 L4.81732,45.3127697 L3.02203,44.279235 L1.38195,43.3349264 C1.04663,43.947116 0.835807702,44.6220942 0.835807702,45.2359362 C0.835807702,45.8770416 1.05908,46.3281286 1.4193,46.5462367 L1.42013,46.5503675 L1.43341,46.557803 L1.44005,46.5611077 L86.77567,95.7039866 L89.50637,94.0830473 Z" id="Path" fill="#5793CE"></path>
                                <polygon id="Path" fill="#FFFFFF" points="85.64355 109.1135 86.70761 109.726515 86.90432 109.388613 86.24115 108.86978"></polygon>
                                <polygon id="Path" fill="#FFFFFF" points="85.67094 95.0653596 86.76156 95.6932464 86.48849 95.1008848"></polygon>
                                <path d="M88.24892,90.8494305 L158.42459,50.6043679 C162.55301,48.2365739 165.9087,50.168978 165.903726,54.9111754 L165.88878,56.4784138 C165.88463,61.2206111 162.5223,67.0054309 158.39388,69.3732249 L88.21821,109.618288 C87.0836,110.269307 86.16396,109.739734 86.1647894,108.436043 C86.16562,107.132352 87.08775,105.546938 88.22236,104.895918 L158.39803,64.6508556 C160.25972,63.5826219 161.77613,60.9744134 161.77779,58.8354676 L161.79273,57.2682292 C161.79439,55.1292834 160.2813,54.2576774 158.41961,55.3259111 L88.24394,95.5709737 C87.10933,96.2219931 86.18969,95.6924202 86.19052,94.388729 C86.19218,93.085864 87.11348,91.50045 88.24892,90.8494305 Z" id="Path" fill="#D4ECFF"></path>
                                <polygon id="Path" fill="#FFFFFF" points="56.99444 51.8303994 93.46132 30.9176396 125.08764 49.1304864 88.62076 70.0432462"></polygon>
                                <g transform="translate(84.660000, 48.743840)" fill="#FFFFFF" id="Path">
                                    <path d="M1.50562,59.6922026 C1.50645,58.3885114 2.42858,56.8030973 3.56319,56.1520779 L73.73886,15.9070153 C75.60055,14.8387816 77.11696,12.2305731 77.11862,10.0916273 L77.1335608,8.52438889 C77.13439,7.12403619 76.4845,6.27143207 75.51423,6.14668088 C75.82631,6.55563344 76.00974,7.13808102 76.00891,7.87667413 L75.99397,9.44391252 C75.99231,11.5828583 74.4759,14.1910669 72.61421,15.2593005 L2.43854,55.5043631 C1.30393,56.1553826 0.38263,57.7399704 0.380969024,59.0444878 C0.38014,60.0325833 0.90885,60.5728964 1.65834,60.4944105 C1.56123,60.2754763 1.50479,60.0077983 1.50562,59.6922026 Z"></path>
                                    <path d="M1.53135,45.6457149 C1.53301,44.3420237 2.45431,42.7566096 3.58892,42.1055902 L73.76459,1.8605276 C75.54245,0.841037787 77.17506,0.622929756 78.4599,1.07897382 C77.08791,-0.0859213457 74.9905,-0.135491353 72.64077,1.21281284 L2.4651,41.4578754 C1.33049,42.1088949 0.40836,43.6943089 0.407529024,44.9980001 C0.4067,45.9860956 0.93541,46.5264087 1.6849,46.4479228 C1.58696,46.2289886 1.53135,45.9613106 1.53135,45.6457149 Z"></path>
                                </g>
                            </g>
                            <g id="Group" transform="translate(31.000000, 22.000000)">
                                <path d="M65.6102293,168.402626 L8.39309733,135.969073 C2.83490031,132.818854 3.53242275,127.316141 9.94962924,123.677825 L9.94962924,123.677825 C16.3668357,120.04034 26.0746572,119.645214 31.6328542,122.795432 L88.8499862,155.228985 C94.4073377,158.379204 93.7106607,163.881917 87.2934543,167.519403 L87.2934543,167.519403 C80.8754023,171.157718 71.1675808,171.552845 65.6102293,168.402626 Z" id="Path" fill="#EFEFEF"></path>
                                <path d="M102.886674,144.338112 L45.6695422,111.904558 C40.1113452,108.75434 40.8088676,103.251626 47.2260741,99.6133107 L47.2260741,99.6133107 C53.6432806,95.9758252 63.3511021,95.580699 68.9092991,98.7309175 L126.126431,131.164471 C131.683783,134.314689 130.987106,139.817403 124.569899,143.454888 L124.569899,143.454888 C118.151847,147.093204 108.444026,147.48833 102.886674,144.338112 Z" id="Path" fill="#EFEFEF"></path>
                                <g transform="translate(38.046679, 0.000000)" id="Path">
                                    <g transform="translate(0.000000, 89.650485)">
                                        <path d="M2.93213071,9.55192718 C-0.886064874,11.7159903 -0.885219392,15.2372621 2.93213071,17.4013252 L67.8287734,54.1879078 C68.8780163,54.7830874 70.5808165,54.7830874 71.6300593,54.1879078 C72.6793022,53.5927282 72.6793022,52.6281553 71.6300593,52.0329757 L6.73341666,15.2463932 C5.01117033,14.270199 5.01117033,12.6822233 6.73341666,11.7060291 L13.0221099,8.14159223 C12.3228965,7.10978155 11.6887852,6.03563592 11.0690471,4.93907767 L2.93213071,9.55192718 Z" fill="#D4ECFF"></path>
                                        <path d="M94.8461427,38.8734466 L29.9495,2.08686408 C26.1313045,-0.0771990291 19.91955,-0.0771990291 16.1013544,2.08686408 L11.0690471,4.93907767 C11.6896307,6.03563592 12.323742,7.10895146 13.0221099,8.14159223 L19.9026404,4.24179612 C21.6248867,3.26560194 24.4259678,3.26560194 26.1482141,4.24179612 L91.0448568,41.0283786 C92.0940996,41.6235583 93.7968999,41.6235583 94.8461427,41.0283786 C95.8953856,40.433199 95.8953856,39.4686262 94.8461427,38.8734466 Z" fill="#5793CE"></path>
                                    </g>
                                    <polygon fill="#5793CE" points="95.6265224 129.677767 95.6332862 40.0828981 27.6244252 2.86134466 18.113601 2.24541262 8.91729602 8.0942767 3.27285985 12.9171408 69.5341101 116.080777 91.1682971 128.599471"></polygon>
                                    <polygon fill="#79B1E0" points="70.4751313 140.99282 90.8022035 129.470243 90.8022035 42.8819854 69.8477838 52.445534"></polygon>
                                    <polygon fill="#D4ECFF" points="0.0701749853 13.6102718 0.0701749853 103.059044 71.4643449 143.152733 72.4172029 142.778359 72.4172029 53.198432"></polygon>
                                    <path d="M40.2246397,14.3507184 L26.035765,6.34692233 C24.3033729,5.55916019 21.7694641,5.60896602 20.1638943,6.51958252 L6.99467052,13.9846456 C5.97417405,14.5632233 5.5641154,15.355966 5.75265783,16.1088641 L41.6061569,37.1435243 L70.4058018,54.4991942 L90.803049,42.8828155 L40.2246397,14.3507184 Z" fill="#FFFFFF"></path>
                                    <path d="M69.8477838,51.7922476 L69.8477838,140.673233 L69.8477838,142.557553 L69.8477838,144.278345 C70.4954228,144.261743 71.1354525,144.118966 71.6300593,143.838393 C72.1458032,143.546199 72.4053661,143.164354 72.4138209,142.78085 L72.4163574,142.778359 L72.4163574,142.764248 L72.4163574,142.757607 L72.4163574,53.198432 L69.8477838,51.7922476 Z" fill="#5793CE"></path>
                                    <polygon fill="#FFFFFF" points="95.6332862 41.2002087 95.6332862 40.0828981 95.2697291 40.0828981 95.1598165 40.8416068"></polygon>
                                    <polygon fill="#FFFFFF" points="72.4155119 54.3589078 72.4155119 53.2142039 72.0654825 53.6998107"></polygon>
                                    <path d="M67.8287734,54.258466 L2.93213071,17.4718835 C-0.886064874,15.3078204 -0.886064874,11.7865485 2.93213071,9.62248544 L16.1013544,2.15742233 C19.91955,-0.0066407767 26.1313045,-0.0066407767 29.9495,2.15742233 L94.8461427,38.9440049 C95.8953856,39.5391845 95.8953856,40.5037573 94.8461427,41.0989369 C93.7968999,41.6941165 92.0940996,41.6941165 91.0448568,41.0989369 L26.1482141,4.31235437 C24.4259678,3.33616019 21.6248867,3.33616019 19.9026404,4.31235437 L6.73341666,11.7774175 C5.01117033,12.7536117 5.01117033,14.3415874 6.73341666,15.3177816 L71.6300593,52.1043641 C72.6793022,52.6995437 72.6793022,53.6641165 71.6300593,54.2592961 C70.5808165,54.8536456 68.8788617,54.8536456 67.8287734,54.258466 Z" fill="#D4ECFF"></path>
                                    <polygon fill="#FFFFFF" points="50.9157565 96.666466 17.1928714 77.5509903 17.1928714 44.3587282 50.9157565 63.475034"></polygon>
                                    <g transform="translate(0.000000, 3.320388)" fill="#FFFFFF">
                                        <path d="M94.8461427,37.7785485 C93.7968999,38.3737282 92.0940996,38.3737282 91.0448568,37.7785485 L26.1482141,0.991966019 C24.4259678,0.0157718447 21.6248867,0.0157718447 19.9026404,0.991966019 L6.73341666,8.45702913 C5.60638948,9.09620388 5.22169529,9.99685922 5.57087925,10.8169951 C5.75519427,10.3845146 6.13904299,9.9736165 6.73341666,9.63742718 L19.9026404,2.17236408 C21.6248867,1.1961699 24.4259678,1.1961699 26.1482141,2.17236408 L91.0448568,38.9589466 C92.0940996,39.5541262 93.7968999,39.5541262 94.8461427,38.9589466 C95.6417411,38.5082039 95.831129,37.8457864 95.4210703,37.2912816 C95.2891752,37.4680922 95.0997873,37.6349417 94.8461427,37.7785485 Z"></path>
                                        <path d="M71.6300593,50.9389078 C70.5808165,51.5332573 68.8780163,51.5332573 67.8287734,50.9389078 L2.93213071,14.1523252 C1.28766871,13.2201262 0.355947817,12.0364078 0.128513226,10.8178252 C-0.173323759,12.4290437 0.759242612,14.1008592 2.93213071,15.3327233 L67.8287734,52.1193058 C68.8780163,52.7144854 70.5808165,52.7144854 71.6300593,52.1193058 C72.4256577,51.6685631 72.6150456,51.0061456 72.2049869,50.4516408 C72.0739373,50.6276214 71.8845494,50.7944709 71.6300593,50.9389078 Z"></path>
                                    </g>
                                </g>
                                <g transform="translate(0.000000, 23.242718)" id="Path">
                                    <g transform="translate(0.000000, 89.650485)">
                                        <path d="M3.29822431,9.25641262 C-0.519971276,11.4204757 -0.519125795,14.9417476 3.29822431,17.1058107 L68.194867,53.8923932 C69.2441099,54.4875728 70.9469101,54.4875728 71.9961529,53.8923932 C73.0453958,53.2972136 73.0453958,52.3326408 71.9961529,51.7374612 L7.09951026,14.9508786 C5.37726393,13.9746845 5.37726393,12.3867087 7.09951026,11.4105146 L13.3882035,7.84607767 C12.6898356,6.81426699 12.0548788,5.74012136 11.4351407,4.64356311 L3.29822431,9.25641262 Z" fill="#6F64F8"></path>
                                        <path d="M95.2113908,38.577932 L30.3147481,1.79134951 C26.4965526,-0.372713592 20.2847981,-0.372713592 16.4666026,1.79134951 L11.4342952,4.64356311 C12.0548788,5.74012136 12.6889901,6.81343689 13.387358,7.84607767 L20.2678885,3.94628155 C21.9901348,2.97008738 24.7912159,2.97008738 26.5134622,3.94628155 L91.4101049,40.7328641 C92.4593477,41.3280437 94.162148,41.3280437 95.2113908,40.7328641 C96.2606337,40.1376845 96.2606337,39.1731117 95.2113908,38.577932 Z" fill="#6236FF"></path>
                                    </g>
                                    <polygon fill="#6236FF" points="95.9917705 129.382252 95.9985344 39.7873835 27.9905188 2.5658301 18.4796946 1.94989806 9.28254413 7.79876214 3.63895345 12.6216262 69.9002037 115.785262 91.5343907 128.303956"></polygon>
                                    <polygon fill="#847AFB" points="70.8403794 140.697306 91.1682971 129.175558 91.1682971 42.5864709 70.2138774 52.1500194"></polygon>
                                    <polygon fill="#6F64F8" points="0.436268583 13.3147573 0.436268583 102.763529 71.8304385 142.857218 72.782451 142.482845 72.782451 52.9029175"></polygon>
                                    <path d="M40.5907333,14.0552039 L26.4018586,6.05140777 C24.6694665,5.26364563 22.1355577,5.31345146 20.5299879,6.22406796 L7.36076412,13.6891311 C6.34026764,14.2677087 5.930209,15.0604515 6.11875143,15.8133495 L41.9722505,36.8480097 L70.7718954,54.2036796 L91.1691426,42.587301 L40.5907333,14.0552039 Z" fill="#FFFFFF"></path>
                                    <path d="M70.2138774,51.496733 L70.2138774,140.377718 L70.2138774,142.262039 L70.2138774,143.98283 C70.8615164,143.966228 71.5015461,143.823451 71.9961529,143.542879 C72.5118968,143.250684 72.7714597,142.86884 72.7799145,142.485335 L72.782451,142.483675 L72.782451,142.469563 L72.782451,142.462922 L72.782451,52.9037476 L70.2138774,51.496733 Z" fill="#6236FF"></path>
                                    <polygon fill="#FFFFFF" points="95.9985344 40.9046942 95.9985344 39.7873835 95.6358227 39.7873835 95.5250646 40.5460922"></polygon>
                                    <polygon fill="#FFFFFF" points="72.78076 54.0633932 72.78076 52.9186893 72.4307306 53.4051262"></polygon>
                                    <path d="M68.194867,53.9629515 L3.29822431,17.1763689 C-0.519971276,15.0123058 -0.519971276,11.491034 3.29822431,9.32697087 L16.467448,1.86190777 C20.2856436,-0.30215534 26.497398,-0.30215534 30.3155936,1.86190777 L95.2122363,38.6484903 C96.2614792,39.2436699 96.2614792,40.2082427 95.2122363,40.8034223 C94.1629935,41.3986019 92.4601932,41.3986019 91.4109504,40.8034223 L26.5143077,4.01683981 C24.7920614,3.04064563 21.9909803,3.04064563 20.268734,4.01683981 L7.09951026,11.4819029 C5.37726393,12.4580971 5.37726393,14.0460728 7.09951026,15.022267 L71.9961529,51.8088495 C73.0453958,52.4040291 73.0453958,53.3686019 71.9961529,53.9637816 C70.9469101,54.5581311 69.2441099,54.5581311 68.194867,53.9629515 Z" fill="#6F64F8"></path>
                                    <polygon fill="#FFFFFF" points="51.2818501 96.3709515 17.558965 77.2554757 17.558965 44.0632136 51.2818501 63.1795194"></polygon>
                                    <g transform="translate(0.000000, 2.490291)" fill="#FFFFFF">
                                        <path d="M95.2113908,38.3139612 C94.162148,38.9091408 92.4593477,38.9091408 91.4101049,38.3139612 L26.5134622,1.52737864 C24.7912159,0.551184466 21.9901348,0.551184466 20.2678885,1.52737864 L7.09866477,8.99161165 C5.97079212,9.63078641 5.5869434,10.5314417 5.93612737,11.3515777 C6.12044239,10.9190971 6.5042911,10.508199 7.09866477,10.1711796 L20.2678885,2.7061165 C21.9901348,1.72992233 24.7912159,1.72992233 26.5134622,2.7061165 L91.4101049,39.492699 C92.4593477,40.0878786 94.162148,40.0878786 95.2113908,39.492699 C96.0069892,39.0419563 96.1963771,38.3787087 95.7863184,37.825034 C95.6552688,38.0035049 95.4658808,38.1695243 95.2113908,38.3139612 Z"></path>
                                        <path d="M71.9961529,51.4734903 C70.9469101,52.0678398 69.2441099,52.0678398 68.194867,51.4734903 L3.29822431,14.6869078 C1.6537623,13.7547087 0.722041415,12.5709903 0.493761342,11.3524078 C0.192769839,12.9636262 1.12449073,14.6354417 3.29822431,15.8673058 L68.194867,52.6538883 C69.2441099,53.249068 70.9469101,53.249068 71.9961529,52.6538883 C72.7917513,52.2031456 72.9811392,51.5407282 72.5710805,50.9862233 C72.4400309,51.163034 72.250643,51.3290534 71.9961529,51.4734903 Z"></path>
                                    </g>
                                </g>
                            </g>
                            <g id="Group" transform="translate(0.000000, 154.000000)">
                                <path d="M92.5461593,64.1141687 L7.08730388,15.6506506 C5.23978381,14.6027952 5.47082808,12.7725301 7.60527678,11.5624578 L7.60527678,11.5624578 C9.73889139,10.3523855 12.9668384,10.2213012 14.8151926,11.2691566 L100.274048,59.7326747 C102.122402,60.7805301 101.890524,62.6107952 99.7560751,63.8208675 L99.7560751,63.8208675 C97.6224605,65.0309398 94.3945134,65.1620241 92.5461593,64.1141687 Z" id="Path" fill="#EFEFEF"></path>
                                <g>
                                    <path d="M0.859117689,0.864337349 L0.859117689,0.864337349 C0.922508897,0.756192771 1.04845722,0.700481928 1.17273735,0.725879518 L5.23060876,1.54925301 L3.66251046,4.22992771 L0.894983767,1.20106024 C0.810740188,1.10766265 0.795726481,0.971662651 0.859117689,0.864337349 Z" id="Path" fill="#D4ECFF"></path>
                                    <g transform="translate(1.668190, 0.819277)" id="Path">
                                        <path d="M0.80739872,1.99493976 C0.805735619,1.42062651 1.21444209,0.72260241 1.71990357,0.434216867 C1.95345012,0.300674699 2.16447612,0.28346988 2.32712461,0.354746988 C7.00556259,0.272 11.6197753,1.43701205 15.6776467,3.72689157 L15.9712481,3.89238554 L11.0267338,12.3456867 L9.53203587,11.3928675 C6.36831413,9.37580723 3.69170378,6.7033253 1.68987615,3.56303614 L1.04345265,2.54959036 C0.899154241,2.44881928 0.808237903,2.26120482 0.80739872,1.99493976 Z" fill="#5793CE"></path>
                                        <path d="M9.99411245,10.117253 C9.98911985,7.91913253 11.5547159,5.24255422 13.49065,4.13980723 C15.4265841,3.03624096 16.999687,3.92433735 17.0038694,6.12245783 C17.008862,8.32057831 15.443266,10.9971566 13.5073319,12.0999036 C11.5722319,13.2034699 9.99912898,12.3153735 9.99411245,10.117253 Z" fill="#D4ECFF"></path>
                                        <polygon fill="#D4ECFF" points="50.3000895 35.5320482 11.0275679 12.346506 15.9720822 3.89320482 56.1429239 25.5426024"></polygon>
                                        <path d="M49.079795,32.897253 C49.0739701,30.3001446 50.9239925,27.1377349 53.2110805,25.8342651 C55.4981686,24.5307952 57.357366,25.5794699 57.3632185,28.1773976 C57.3690433,30.774506 55.519021,33.9369157 53.2310988,35.2403855 C50.9440108,36.5438554 49.0848133,35.4951807 49.079795,32.897253 Z" fill="#D4ECFF"></path>
                                    </g>
                                    <g transform="translate(51.713880, 26.036145)">
                                        <path d="M0.746501103,8.64713253 C0.740676221,6.0500241 2.59069858,2.88761446 4.87862074,1.58414458 C7.1657088,0.280674699 9.02490621,1.3293494 9.02992456,3.92727711 C9.03574944,6.52438554 7.18572708,9.68679518 4.89863902,10.9902651 C2.61071686,12.2937349 0.752353549,11.244241 0.746501103,8.64713253 Z" id="Path" fill="#D4ECFF"></path>
                                        <polygon id="Rectangle" fill="#D4ECFF" transform="translate(24.760161, 17.490615) rotate(-60.120096) translate(-24.760161, -17.490615) " points="18.7984098 -5.35963935 30.3703554 -5.26963641 30.7219115 40.3408687 19.149966 40.2508657"></polygon>
                                        <path d="M40.4677657,31.0641928 C40.4619409,28.4670843 42.3119632,25.3046747 44.5990513,24.0012048 C46.8861393,22.6977349 48.7453367,23.7464096 48.7511892,26.3443373 C48.7570141,28.9414458 46.9069917,32.1038554 44.6199037,33.4073253 C42.3319815,34.7107952 40.4736182,33.6621205 40.4677657,31.0641928 Z" id="Path" fill="#D4ECFF"></path>
                                        <path d="M41.9499661,30.2195181 C42.0258687,28.6858313 43.277011,26.7638072 44.745852,25.926506 C46.214693,25.0900241 47.3440574,25.654506 47.2681548,27.1881928 C47.1930862,28.7218795 45.9411099,30.6439036 44.4722689,31.4812048 C43.0042619,32.318506 41.8748975,31.7540241 41.9499661,30.2195181 Z" id="Path" fill="#396CAA"></path>
                                    </g>
                                    <g transform="translate(49.211596, 25.397590)">
                                        <path d="M1.23444659,8.14853012 C1.2286217,5.55142169 3.07864407,2.38901205 5.36573213,1.08554217 C7.65282019,-0.217927711 9.51201759,0.830746988 9.51787004,3.4286747 C9.52369492,6.02578313 7.67367256,9.18819277 5.3857504,10.4916627 C3.09866234,11.7951325 1.23946494,10.7464578 1.23444659,8.14853012 Z" id="Path" fill="#5793CE"></path>
                                        <path d="M1.23446037,8.14853012 C1.2286217,5.55142169 3.07864407,2.38901205 5.36656622,1.08554217 C6.28824102,0.560385542 7.13651548,0.422746988 7.82631192,0.608722892 C7.07229018,-0.150746988 5.84617076,-0.228578313 4.45990513,0.560385542 C2.17281707,1.86385542 0.322794704,5.02626506 0.327789144,7.62337349 C0.331135653,9.17426506 0.998411528,10.1680482 2.02017771,10.4433253 C1.52889585,9.95012048 1.23612856,9.17180723 1.23446037,8.14853012 Z" id="Path" fill="#FFFFFF"></path>
                                        <polygon id="Rectangle" fill="#5793CE" transform="translate(6.512321, 6.420081) rotate(-60.120096) translate(-6.512321, -6.420081) " points="0.71638888 5.08290777 12.2883344 5.1729107 12.308254 7.75725409 0.736308455 7.66725115"></polygon>
                                        <path d="M3.48483447,9.41922892 C3.47900959,6.82212048 5.32903195,3.65971084 7.61612002,2.35624096 C9.90320808,1.05277108 11.7624055,2.10144578 11.7682579,4.69937349 C11.7740828,7.29648193 9.92406045,10.4588916 7.63613829,11.7623614 C5.34905023,13.065012 3.49068692,12.0163373 3.48483447,9.41922892 Z" id="Path" fill="#D4ECFF"></path>
                                    </g>
                                    <g transform="translate(94.252717, 52.433735)" fill="#6F64F8" id="Path">
                                        <path d="M1.28200377,4.95662651 L3.80263839,0.647228916 L12.2219917,5.39903614 C13.4339315,6.08313253 13.850979,7.60207229 13.1553439,8.79166265 L13.1553439,8.79166265 C12.4588747,9.98207229 10.9124628,10.3917108 9.70135712,9.70843373 L1.28200377,4.95662651 Z"></path>
                                        <path d="M0.755684061,3.82028916 C0.753187644,2.69951807 1.55141641,1.33542169 2.53815061,0.772578313 C3.52488481,0.210554217 4.32728405,0.662795181 4.3289581,1.78356627 C4.33145452,2.90433735 3.53322576,4.26843373 2.54649156,4.83127711 C1.55975736,5.39412048 0.758192213,4.94106024 0.755684061,3.82028916 Z"></path>
                                    </g>
                                    <g transform="translate(61.723018, 28.674699)" fill="#5793CE" id="Path">
                                        <path d="M23.8292556,12.5447711 L25.0770615,11.8336386 C25.794383,11.4256386 26.7485875,11.5165783 27.7653491,12.0900723 L32.0917991,14.5315181 C32.908378,14.9927711 33.5748197,16.1200964 33.5764879,17.0450602 L33.5806584,19.1596145 C33.5814925,19.5143614 33.7633252,19.9199036 34.0243969,20.2173012 L33.8734257,21.1987952 L34.9393989,20.5851566 L34.9368966,20.5835181 C35.0912042,20.5048675 35.1879592,20.3262651 35.1879592,20.0665542 L35.1837887,17.952 C35.1796182,16.0226024 33.7908503,13.6712771 32.0884627,12.7102651 L27.7620128,10.2688193 C26.3165264,9.45281928 24.95862,9.32419277 23.938522,9.90506024 L22.6907161,10.617012 C21.9742287,11.025012 21.0191901,10.9340723 20.0024284,10.3605783 L2.56233936,0.51860241 C2.33713375,0.391614458 2.1344487,0.38260241 1.98848211,0.469445783 L1.98848211,0.467807229 L0.924177087,1.08062651 L1.8441837,1.41816867 C1.97513659,1.79503614 2.2478856,2.16043373 2.56567574,2.33985542 L20.0049307,12.1818313 C21.4520853,12.997012 22.8099917,13.1256386 23.8292556,12.5447711 Z"></path>
                                        <path d="M23.9977427,12.4546506 C24.7150643,12.0466506 25.6692688,12.1375904 26.6860304,12.7110843 L31.0124804,15.1525301 C31.8290592,15.6129639 32.495501,16.7411084 32.4971692,17.6660723 L32.5013397,19.7806265 C32.5021738,20.2836627 32.8633368,20.8940241 33.3070753,21.1447229 C33.7508137,21.3954217 34.1094745,21.1906024 34.1086419,20.6875663 L34.10447,18.573012 C34.1002995,16.6436145 32.7115316,14.2931084 31.009144,13.3320964 L26.682694,10.8906506 C25.2372077,10.0746506 23.8793013,9.9460241 22.8592033,10.5268916 L21.6113974,11.2380241 C20.8949099,11.6460241 19.9398713,11.5559036 18.9231097,10.9815904 L1.48302063,1.13961446 C1.03928217,0.888915663 0.680621392,1.09373494 0.681454035,1.59677108 C0.682289582,2.09980723 1.04345265,2.71016867 1.48719111,2.96086747 L18.9264461,12.8028434 C20.3719325,13.6188434 21.7298389,13.7482892 22.7499369,13.1674217 L23.9977427,12.4546506 Z"></path>
                                    </g>
                                </g>
                                <path d="M102.44186,67.5731566 L94.4679138,63.050747 C93.5062024,62.5051084 93.6271462,61.5531084 94.7373264,60.9230843 L94.7373264,60.9230843 C95.8475067,60.2930602 97.5273737,60.2250602 98.489085,60.7706988 L106.463032,65.2931084 C107.424743,65.838747 107.303799,66.790747 106.193619,67.4207711 L106.193619,67.4207711 C105.083439,68.0499759 103.403572,68.1187952 102.44186,67.5731566 Z" id="Path" fill="#EFEFEF"></path>
                            </g>
                            <g id="Group" transform="translate(126.000000, 133.000000)">
                                <polygon id="Path" fill="#EFEFEF" points="23.7668805 83.6906068 9.59659119 75.9317526 54.1840377 51.5194948 68.354327 59.2775497"></polygon>
                                <polygon id="Path" fill="#EFEFEF" points="58.9043774 57.1628064 56.4662516 55.8281044 74.6641258 45.7259293 77.1022516 47.0606312"></polygon>
                                <ellipse id="Oval" fill="#EFEFEF" cx="13.751434" cy="80.6008118" rx="3.63738365" ry="3.44944525"></ellipse>
                                <g>
                                    <path d="M115.367258,11.9443835 C103.513736,5.45469504 84.2952704,5.45389582 72.4425912,11.9443835 C67.5284151,14.6353664 64.6579497,18.0192754 63.8193962,21.5214693 C64.5593459,24.6104651 66.8845409,27.6059519 70.7941384,30.1171096 C71.7709057,29.3602457 72.8673459,28.6345515 74.1062138,27.9568106 C85.9597358,21.4671222 105.177358,21.4671222 117.030881,27.9576099 C117.614918,28.2772989 118.161031,28.6097756 118.686918,28.948646 C121.596994,26.7004325 123.364277,24.1453175 123.992981,21.5230678 C123.151899,18.0200746 120.281434,14.6353664 115.367258,11.9443835 Z" id="Path" fill="#D4ECFF" opacity="0.5"></path>
                                    <path d="M123.799145,22.1352724 C122.784453,25.4168808 119.99405,28.5666176 115.368101,31.0993544 C103.514579,37.5890428 84.296956,37.5890428 72.443434,31.0993544 C69.5030189,29.4889206 67.3101384,27.6283301 65.8310818,25.6454585 C57.4977987,33.3195951 59.3586289,43.3906005 71.4186289,49.9937786 C85.6816226,57.8029838 108.806314,57.8029838 123.069308,49.9945778 C137.079472,42.322839 137.315447,29.9724503 123.799145,22.1352724 Z" id="Path" fill="#EFEFEF"></path>
                                    <path d="M63.0979874,26.7028302 L67.7298365,20.9771986 L81.790566,14.7808249 L93.9053459,13.7610167 L108.092491,15.4082148 L117.93517,20.2323231 L124.221371,24.0366232 L125.351522,17.8402495 L123.228591,10.7023914 C123.228591,10.7023914 117.852579,7.32967154 117.521371,7.01557701 C117.190164,6.70148248 104.949811,2.54472513 104.949811,2.54472513 L92.7086164,1.76068764 L82.8659371,2.93714348 L72.8580755,5.76079734 L66.2415094,10.1533254 L61.2792956,16.1147276 L60.7205409,23.565881 L63.0979874,26.7028302 Z" id="Path" fill="#6236FF"></path>
                                    <polygon id="Path" fill="#6236FF" points="128.750403 19.3483827 128.750403 31.4094528 125.350679 26.1801385"></polygon>
                                    <path d="M72.4417484,19.9749734 C84.2952704,13.4852849 103.512893,13.4852849 115.366415,19.9749734 C119.094818,22.0161882 121.648403,24.4570144 123.031384,27.0456967 C124.075572,26.1593587 125.419786,25.4632358 125.978541,24.269197 C124.280365,22.0777283 121.807686,20.0221275 118.544491,18.2358647 C104.936327,10.7847113 82.8726792,10.7847113 69.2645157,18.2350655 C66.2861761,19.8654798 63.9601384,21.7180781 62.2855597,23.6953551 C62.8342013,24.9109729 63.6651698,26.085031 64.772566,27.0552874 C66.1538616,24.4634081 68.7091321,22.0193851 72.4417484,19.9749734 Z" id="Path" fill="#6236FF"></path>
                                    <path d="M115.367258,11.9443835 C103.513736,5.45469504 84.2952704,5.45389582 72.4425912,11.9443835 C67.5284151,14.6353664 64.6579497,18.0192754 63.8185535,21.5214693 C64.6579497,25.0236633 67.5284151,28.4083715 72.4425912,31.0993544 C84.2961132,37.5890428 103.513736,37.589842 115.367258,31.0993544 C120.281434,28.4083715 123.151899,25.0244625 123.990453,21.5222685 C123.151899,18.0200746 120.281434,14.6353664 115.367258,11.9443835 Z" id="Path" fill-opacity="0.578725962" fill="#7E72F2" opacity="0.5"></path>
                                    <path d="M125.978541,24.269197 C125.741723,24.7767034 125.358264,25.1922993 124.920025,25.5727293 L124.909069,25.4472513 L121.76639,27.2255218 L117.906516,30.6246161 L112.558314,32.8728296 L105.169774,35.3831881 L98.6079874,36.8473641 L89.5650943,37.2134081 L83.7205031,36.6379678 L72.1408805,33.7623644 L64.5947421,27.4357174 C64.6562642,27.308641 64.7059874,27.1807654 64.772566,27.0552874 C63.6651698,26.085031 62.8342013,24.9109729 62.2855597,23.6953551 C62.0816101,23.9367204 61.8886164,24.1796841 61.7040503,24.4242462 L59.0586038,19.1989281 L59.0586038,31.725945 L59.0645031,31.7147558 C59.0594465,36.6012035 62.4557987,41.4884504 69.2645157,45.2160252 C82.8726792,52.6671786 104.936327,52.6671786 118.544491,45.2168244 C128.889459,39.5535323 131.361296,31.2168401 125.978541,24.269197 Z" id="Path" fill="#6236FF"></path>
                                    <path d="M67.3160377,29.7174983 L64.5947421,27.4357174 C64.6562642,27.308641 64.7059874,27.1807654 64.772566,27.0552874 C63.6651698,26.085031 62.8342013,24.9109729 62.2855597,23.6953551 C62.0816101,23.9367204 61.8886164,24.1796841 61.7040503,24.4242462 L59.0586038,19.1989281 L59.0586038,31.725945 L59.0645031,31.7147558 C59.0602893,36.1072839 61.8136101,40.4982135 67.315195,44.0499593 L67.315195,29.7174983 L67.3160377,29.7174983 Z" id="Path" fill="#6F64F8"></path>
                                    <path d="M118.544491,5.85750329 C104.936327,-1.5936501 82.8726792,-1.5936501 69.2645157,5.85670407 C55.6563522,13.3070582 55.657195,25.3873096 69.2653585,32.838463 C82.873522,40.2896164 104.93717,40.2896164 118.545333,32.8392622 C132.152654,25.388908 132.152654,13.3086567 118.544491,5.85750329 Z M115.367258,31.0993544 C103.513736,37.5890428 84.2961132,37.5890428 72.4425912,31.0993544 C60.5890692,24.6096659 60.5890692,14.0870996 72.4417484,7.59741115 C84.2952704,1.10772269 103.512893,1.10772269 115.366415,7.59741115 C127.22078,14.0870996 127.22078,24.6096659 115.367258,31.0993544 Z" id="Shape" fill="#6F64F8"></path>
                                    <g transform="translate(0.000000, 35.165800)">
                                        <g transform="translate(44.344086, 0.000000)">
                                            <polygon id="Path" fill="#D4ECFF" points="2.12863096 11.3465649 21.4423291 0.688130759 24.010241 4.63309409 4.60805234 15.3490723"></polygon>
                                            <ellipse id="Oval" fill="#983BE9" transform="translate(3.358080, 13.354745) rotate(-30.000728) translate(-3.358080, -13.354745) " cx="3.35808012" cy="13.3547447" rx="1.39612854" ry="2.35353272"></ellipse>
                                            <ellipse id="Oval" fill="#983BE9" transform="translate(3.358080, 13.354745) rotate(-30.000728) translate(-3.358080, -13.354745) " cx="3.35808012" cy="13.3547447" rx="1.39612854" ry="2.35353272"></ellipse>
                                            <path d="M24.4189832,3.63326647 C24.4189832,4.68024823 23.6436372,5.10463549 22.6879391,4.58114461 C21.7313983,4.05765373 20.9568951,2.78449195 20.9568951,1.73751019 C20.9568951,0.690528427 21.732241,0.266141165 22.6879391,0.789632044 C23.64448,1.31312292 24.4189832,2.58628471 24.4189832,3.63326647 Z" id="Path" fill="#D4ECFF"></path>
                                        </g>
                                        <path d="M58.9448302,15.0685451 C58.9448302,10.5633266 55.61,5.08545415 51.4956101,2.83244531 C49.3895346,1.67916693 47.4916226,1.6008431 46.1364528,2.39766815 L46.1339245,2.39367204 L5.30184906,24.8989845 L15.971283,42.1222341 L56.3727044,19.815928 C56.6499748,19.7040369 56.9103899,19.5617752 57.1488931,19.3875447 L57.1826038,19.3691625 L57.1809182,19.3667649 C58.2798868,18.5467624 58.9448302,17.0753933 58.9448302,15.0685451 Z" id="Path" fill="#5793CE"></path>
                                        <path d="M8.25659119,29.6687457 L53.9573333,4.64668088 C53.1853585,3.92738043 52.3594465,3.30558516 51.4947673,2.83244531 C49.3886918,1.67916693 47.4907799,1.6008431 46.1356101,2.39766815 L46.1330818,2.39367204 L5.30100629,24.8989845 L8.25659119,29.6687457 Z" id="Path" fill="#D4ECFF"></path>
                                        <g transform="translate(0.000000, 21.579013)" id="Oval">
                                            <ellipse fill="#D4ECFF" transform="translate(10.626947, 11.933498) rotate(-30.000728) translate(-10.626947, -11.933498) " cx="10.6269467" cy="11.9334981" rx="6.00826329" ry="10.1270774"></ellipse>
                                            <ellipse fill="#5793CE" cx="7.18459119" cy="13.9064753" rx="4.85265409" ry="4.6019244"></ellipse>
                                            <ellipse fill="#FFFFFF" cx="4.8627673" cy="12.2193161" rx="1.43354717" ry="1.35947784"></ellipse>
                                        </g>
                                        <path d="M11.1860503,25.0516361 C8.98474214,23.8464082 7.01266667,23.8184354 5.64906918,24.7343446 C6.9705283,24.1501128 8.71589937,24.3027644 10.636566,25.3545415 C14.750956,27.6075503 18.0857862,33.0854228 18.0857862,37.5906413 C18.0857862,39.6846048 17.358478,41.1911396 16.1735472,41.9863662 C17.6812579,41.3190152 18.6352704,39.6894001 18.6352704,37.2885351 C18.6352704,32.7817182 15.3004403,27.3038457 11.1860503,25.0516361 Z" id="Path" fill="#FFFFFF"></path>
                                    </g>
                                    <g transform="translate(58.993711, 2.397668)" fill="#FFFFFF" id="Path">
                                        <path d="M56.3735472,5.199743 C44.5200252,-1.28994546 25.3015597,-1.28994546 13.4488805,5.199743 C7.27645283,8.57965586 4.32592453,13.0521062 4.58212579,17.4798 C4.81810063,13.4053626 7.76862893,9.36848869 13.4488805,6.25871309 C25.3024025,-0.230975365 44.5200252,-0.230975365 56.3735472,6.25871309 C62.0546415,9.36928791 65.0051698,13.4061619 65.2403019,17.4805993 C65.4965031,13.0529054 62.5459748,8.57965586 56.3735472,5.199743 Z"></path>
                                        <path d="M59.5516226,30.4415941 C45.9434591,37.8919482 23.8806541,37.8919482 10.2716478,30.4407948 C3.7132327,26.8498872 0.325308176,22.1840249 0.088490566,17.4790008 C-0.166867925,22.5364822 3.22189937,27.6395192 10.2716478,31.4997649 C23.8798113,38.9509183 45.9434591,38.9509183 59.5516226,31.5005642 C66.6013711,27.6403184 69.9892956,22.5380806 69.7347799,17.4805993 C69.4971195,22.1856234 66.109195,26.8514856 59.5516226,30.4415941 Z"></path>
                                    </g>
                                </g>
                            </g>
                            <g id="Group" transform="translate(173.000000, 0.000000)">
                                <g>
                                    <g>
                                        <path d="M27.4123706,101.441757 C27.4123706,101.441757 29.2250292,99.442125 31.2601801,100.596199 C33.295331,101.750272 36.8118559,104.970904 37.913684,107.638169 C39.0155121,110.305434 36.7505069,110.968985 35.1987861,110.834316 C33.6478833,110.700463 27.7019379,106.650596 27.0532745,105.658941 C26.404611,104.666471 26.341626,103.011265 26.5976559,102.584404 C26.8536857,102.157544 27.4123706,101.441757 27.4123706,101.441757 Z" id="Path" fill="#5793CE"></path>
                                        <path d="M27.4786275,100.145669 L27.3665634,102.639904 C27.3428417,103.170419 27.6103234,103.675632 28.0724859,103.937625 C28.493749,104.175949 29.1064211,104.358772 29.9342236,104.226551 C31.7517901,103.935176 31.9145695,103.416904 32.0438114,100.922669 C32.1738713,98.42925 27.4786275,100.145669 27.4786275,100.145669 Z" id="Path" fill="#D4ECFF"></path>
                                        <g transform="translate(14.723761, 44.073529)" id="Path">
                                            <path d="M21.2095774,52.4581103 C21.2095774,52.4581103 23.0230539,50.4584779 25.0573869,51.6125515 C27.0925378,52.766625 30.6090627,55.9880735 31.7108908,58.6545221 C32.8127189,61.3217868 30.5477137,61.9853382 28.9959929,61.8506691 C27.4450901,61.716 21.4991447,57.6669485 20.8504812,56.6752941 C20.2018178,55.6828235 20.1388328,54.0276176 20.3948626,53.6007574 C20.6508925,53.1730809 21.2095774,52.4581103 21.2095774,52.4581103 Z" fill="#5793CE"></path>
                                            <path d="M21.0672477,50.9547132 L20.9551835,53.4489485 C20.9314619,53.9794632 21.1989436,54.4846765 21.661924,54.7466691 C22.0831872,54.9849926 22.6958592,55.1678162 23.5236618,55.0355956 C25.3412283,54.7442206 25.5040076,54.2259485 25.6332495,51.7317132 C25.7633094,49.2382941 21.0672477,50.9547132 21.0672477,50.9547132 Z" fill="#D4ECFF"></path>
                                            <path d="M0.0556230963,5.47980882 C0.769725494,-6.11479412 12.6403486,7.18561765 12.6403486,7.18561765 L20.7645926,15.1310956 L27.5604262,22.8292721 C28.989449,24.3955147 29.6536542,26.5102279 29.3771747,28.6094338 L26.4176988,51.0950956 C26.2712792,52.2059118 25.3191426,53.0245368 24.1968649,53.015632 C23.879486,53.0131103 23.5162999,52.9845441 23.1007627,52.91925 C20.4603016,52.5087132 20.6549824,50.0046838 20.6549824,50.0046838 L21.1956716,28.9742647 L6.3516668,20.0542721 C6.35330277,20.0542721 -0.658479301,17.0744118 0.0556230963,5.47980882 Z" fill="#5793CE"></path>
                                        </g>
                                        <path d="M5.94676338,53.9704853 C6.66086578,42.3758824 18.5314889,55.6762941 18.5314889,55.6762941 L26.6557329,63.6217721 L33.971806,71.6407059 C35.4008288,73.2069485 36.065034,75.3216618 35.7885545,77.4208676 L32.8290786,99.9065294 C32.682659,101.016529 31.7305225,101.835971 30.6082447,101.827066 C30.2908658,101.824544 29.9276798,101.795978 29.5121425,101.7315 C26.8716814,101.320963 27.0671802,98.8161176 27.0671802,98.8161176 L27.6078694,77.7856985 L12.2436251,68.5441324 C12.2444431,68.5449485 5.23266098,65.5659044 5.94676338,53.9704853 Z" id="Path" fill="#5793CE"></path>
                                        <path d="M12.9691793,16.7512059 C3.9696895,20.4737868 4.14964658,25.7821985 4.14964658,25.7821985 C4.14964658,25.7821985 5.91240794,45.2422941 5.31036972,58.2382721 C5.0592478,63.6715588 34.2401057,64.0853603 29.8884164,49.5916985 C24.7571858,32.5017794 26.6802725,18.6659559 24.2786635,16.5798088 C21.8770546,14.4920294 15.2971695,15.7881176 12.9691793,16.7512059 Z" id="Path" fill="#6F64F8"></path>
                                        <path d="M10.0743243,21.4572794 C10.5446667,23.2806176 12.9389138,24.2412574 15.4215034,23.6030074 C17.9040931,22.9647574 19.5351586,20.9700221 19.0639983,19.1466838 C18.5936559,17.3233456 16.1994088,16.3627059 13.7168191,17.0009559 C11.2342295,17.6392059 9.60316397,19.6347574 10.0743243,21.4572794 Z" id="Path" fill="#FFC2B0"></path>
                                        <path d="M13.6775558,23.643 L15.3331609,25.4369559 C15.5482914,25.6695662 15.6505397,25.9846103 15.6145483,26.2988382 L14.4759108,36.1207059 C14.4440093,36.3957574 14.5209001,36.6732574 14.6894053,36.8928088 L18.2517375,41.5433824 C18.4096089,41.749875 18.7351676,41.6927426 18.8136943,41.4454412 L20.7531408,35.3543162 C20.8267596,35.1233382 20.8193977,34.8752206 20.7326911,34.6491397 L17.3208686,25.7283309 C17.2464318,25.5332647 17.2292541,25.3202426 17.2726074,25.1161985 L17.7723972,22.7509191 L13.6775558,23.643 Z" id="Path" fill="#FFFFFF"></path>
                                        <path d="M13.9025021,24.2281985 C11.8362677,24.2281985 10.0784143,23.1973676 9.6571511,21.5641985 L9.6571511,21.5641985 C9.12873168,19.5155956 10.9013089,17.2817206 13.6096629,16.5847059 C16.3180169,15.8901397 18.9511161,16.9903456 19.4811715,19.0397647 C19.7437452,20.0567206 19.4615398,21.1406029 18.6836344,22.0906324 C17.9384485,23.0023015 16.8178068,23.6878897 15.5286597,24.0192574 C14.9773367,24.1612721 14.4301035,24.2281985 13.9025021,24.2281985 Z M15.2562701,17.2319338 C14.7941076,17.2319338 14.3106775,17.2915147 13.8231574,17.4163897 C11.5753299,17.9942426 10.0800502,19.7588162 10.4906796,21.3495441 L10.4906796,21.3495441 C10.9004909,22.9394559 13.0648837,23.7621618 15.3143472,23.1867574 C16.4259911,22.9002794 17.3863075,22.3191618 18.0169753,21.5470588 C18.6165595,20.8141324 18.8406879,19.9995882 18.647643,19.2519706 C18.3253563,18.0081176 16.927417,17.2319338 15.2562701,17.2319338 Z" id="Shape" fill="#FFFFFF"></path>
                                        <path d="M16.5781366,16.3463824 C16.5781366,16.3463824 16.5004279,16.7063162 16.6558454,19.5523235 C16.7049246,20.4468529 13.5654916,21.2826176 12.7540488,20.4729706 C11.942606,19.6633235 12.2673467,18.8210294 12.0726658,15.7766912 C11.877985,12.7323529 16.5781366,16.3463824 16.5781366,16.3463824 Z" id="Path" fill="#FFC2B0"></path>
                                        <path d="M12.0726658,15.775875 C12.0726658,15.775875 12.8456633,18.5990294 16.6566634,19.6812794 L16.5985863,17.1160368 L12.0726658,15.775875 Z" id="Path" fill="#EA9C92"></path>
                                        <ellipse id="Oval" fill="#FFC2B0" transform="translate(16.374302, 10.326899) rotate(-73.052707) translate(-16.374302, -10.326899) " cx="16.3743023" cy="10.3268987" rx="6.91369543" ry="6.92642144"></ellipse>
                                        <path d="M14.773658,10.5874412 C14.773658,10.5874412 18.58793,12.2173456 21.2283911,12.2361176 C23.8696702,12.2548897 23.2872636,10.0479485 23.2872636,10.0479485 L15.447679,8.91754412 L14.773658,10.5874412 Z" id="Path" fill="#EA9C92"></path>
                                        <path d="M22.0161123,11.0175662 C22.0161123,11.0175662 18.6934503,9.61047794 15.7789636,10.1973088 C15.0934908,10.3352426 14.4587331,10.7008897 14.0178382,11.2420147 C13.8738726,11.419125 13.6914615,11.5799118 13.4845109,11.6264338 C12.9675433,11.7431471 12.1217451,9.60313235 11.1172574,9.55497794 C10.1127697,9.50682353 9.44202059,10.2160809 10.2657332,11.5317574 C11.0894458,12.8474338 10.8113303,14.3206324 10.4317845,14.5312059 C10.0530567,14.7425956 5.3610849,11.4754412 8.90705728,4.46611765 C12.4530297,-2.54320588 22.1322664,1.42667647 23.5334776,2.84763971 C23.5334776,2.84763971 25.0099437,4.13066912 26.2099302,2.98883824 C26.2099302,2.98883824 27.5555183,13.0441324 22.0161123,11.0175662 Z" id="Path" fill="#396CAA"></path>
                                        <path d="M9.19907854,39.9991765 L9.19907854,45.2578015 C9.19907854,45.8601397 9.4534724,46.4347279 9.89927516,46.8411838 L20.7253293,56.6891691 L19.4950773,58.566375 L4.57990759,48.8081691 C3.91243043,48.3249926 3.48216942,47.5822721 3.39628082,46.7644632 L2.37625139,37.0062574 L9.19907854,39.9991765 Z" id="Path" fill="#FFC2B0"></path>
                                        <path d="M4.91201019,23.1524779 C4.91201019,23.1524779 1.62779355,28.0805515 0.404085435,41.0536765 C0.404085435,41.0536765 6.01465628,42.8639559 9.19826055,41.8363897 C12.3826828,40.8088235 4.91201019,23.1524779 4.91201019,23.1524779 Z" id="Path" fill="#6F64F8"></path>
                                        <path d="M9.7986628,29.3839853 C9.7986628,29.3839853 11.0845379,36.2504779 11.1573387,39.4776397 C11.1769704,40.3648235 10.6346452,41.1654926 9.7986628,41.4666618 L9.7986628,41.4666618 L9.7986628,29.3839853 Z" id="Path" fill="#6236FF"></path>
                                    </g>
                                    <g transform="translate(12.269801, 52.235294)" id="Path">
                                        <path d="M0.337828511,11.2909853 L2.73043964,10.9759412 L18.1764827,2.07798529 C18.6713646,1.79232353 19.5367946,1.82823529 20.1085673,2.15797059 L31.0532295,8.46048529 L32.500248,8.27031618 L32.500248,9.70760294 L32.498612,9.70760294 C32.5084278,9.89695588 32.4004536,10.0789632 32.1665094,10.2136324 L14.6615938,20.2974926 C14.1667118,20.5823382 13.3012819,20.5472426 12.7295092,20.2175074 L0.809806843,13.3534632 C0.488338066,13.1681912 0.328012671,12.9290515 0.337010524,12.7054191 L0.337010524,12.7054191 L0.337010524,11.2909853 L0.337828511,11.2909853 Z" fill="#D4ECFF"></path>
                                        <path d="M11.942606,5.66834559 L13.0403441,5.036625 L25.1048301,5.036625 L31.0524115,8.46048529 L32.49943,8.27031618 L32.49943,9.70760294 L32.497794,9.70760294 C32.5076098,9.89695588 32.3996356,10.0789632 32.1656914,10.2136324 L14.6607758,20.2974926 C14.3990201,20.4484853 14.034198,20.5080662 13.66365,20.4835809 L11.942606,5.66834559 Z" fill="#D4ECFF"></path>
                                        <path d="M31.8573104,8.35438235 L32.49943,8.2695 L32.49943,9.70678676 L32.497794,9.70678676 C32.5076098,9.89613971 32.3996356,10.0781471 32.1656914,10.2128162 L31.8573104,10.3907426 L31.8573104,8.35438235 Z" fill="#5793CE"></path>
                                        <path d="M14.4849087,20.3791103 C14.0153843,20.5570368 13.3446352,20.5178603 12.8432093,20.2770882 L12.8432093,17.8318235 L14.4849087,17.8318235 L14.4849087,20.3791103 Z" fill="#D4ECFF"></path>
                                        <path d="M14.6615938,18.8610221 L32.1665094,8.77716176 C32.6613913,8.4915 32.5992243,7.99363235 32.0274516,7.66389706 L20.1077493,0.799852941 C19.5359766,0.470117647 18.6713646,0.435022059 18.1756647,0.719867647 L0.670749102,10.8037279 C0.175867143,11.0893897 0.237216146,11.5872574 0.808988856,11.9169926 L12.7286912,18.7810368 C13.3012819,19.1107721 14.1658938,19.1458676 14.6615938,18.8610221 Z" fill="#FFFFFF"></path>
                                        <path d="M14.957705,17.3323235 L29.5129605,8.94774265 C29.9244078,8.71023529 29.8728746,8.29643382 29.3976244,8.02219853 L23.0107841,4.43836765 C22.5355339,4.16413235 21.8157055,4.13475 21.4042582,4.37225735 L6.84900272,12.7568382 C6.43755541,12.9943456 6.48908857,13.4081471 6.96433885,13.6823824 L13.3519971,17.2662132 C13.8264294,17.5396324 14.5454397,17.5698309 14.957705,17.3323235 Z" fill="#D4ECFF"></path>
                                    </g>
                                    <path d="M31.7010749,52.7037794 L31.88185,53.9092721 C32.0364495,54.9360221 32.0094559,55.9815441 31.8033233,56.9993162 L31.5881928,58.0611618 C31.4663128,58.6602353 30.9918805,59.1246397 30.3890243,59.2348235 L30.3890243,59.2348235 C29.9186819,59.3205221 29.4736971,58.9899706 29.420528,58.5157721 L29.1317787,55.9391029 C29.1317787,55.9391029 28.4708454,56.8026176 28.1526486,56.8026176 C27.8336338,56.8026176 28.5092908,54.2226838 29.2307551,52.7625441 C29.9514014,51.3024044 31.7010749,52.7037794 31.7010749,52.7037794 Z" id="Path" fill="#FFC2B0"></path>
                                    <path d="M25.7673993,33.5505662 L27.6454968,37.2600882 C28.0896636,38.1374779 28.3514194,39.0948529 28.4144043,40.0758971 L29.2299371,52.7633603 L31.7010749,52.7045956 L32.8225347,38.4566029 C32.8568902,38.0166838 32.8356225,37.5743162 32.7587318,37.1392941 L31.4777646,29.9145 L25.7673993,33.5505662 Z" id="Path" fill="#FFC2B0"></path>
                                    <g transform="translate(26.175575, 44.889706)" id="Path">
                                        <path d="M1.34886008,27.1754118 L2.81632824,25.2639265 L18.2509195,16.3471985 C18.7458014,16.0615368 19.1466149,15.2959632 19.1457969,14.6364926 L19.1327091,2.02738235 L20.0202247,0.871676471 L19.1858783,0.390132353 L19.1850603,0.390948529 C19.0255529,0.288110294 18.8136943,0.290558824 18.5797501,0.426044118 L1.08710434,10.531125 C0.592222378,10.8167868 0.19140889,11.5823603 0.192225627,12.2418309 L0.206950638,25.9731838 C0.206950638,26.3437279 0.334556564,26.6016397 0.534145321,26.7052941 L0.534145321,26.7052941 L1.34886008,27.1754118 Z" fill="#FFFFFF"></path>
                                        <path d="M12.0227687,19.9449044 L13.1196888,19.3115515 L19.139253,8.87918382 L19.1327091,2.02738235 L20.0202247,0.871676471 L19.1858783,0.390132353 L19.1850603,0.390948529 C19.0255529,0.288110294 18.8136943,0.290558824 18.5797501,0.426044118 L1.08710434,10.531125 C0.82534859,10.6821176 0.591404391,10.9677794 0.427807049,11.2999632 L12.0227687,19.9449044 Z" fill="#FFFFFF"></path>
                                        <path d="M19.6259551,1.38423529 L20.0202247,0.870860294 L19.1858783,0.389316176 L19.1850603,0.390132353 C19.0255529,0.287294118 18.8136943,0.289742647 18.5797501,0.425227941 L18.2713691,0.603154412 L19.6259551,1.38423529 Z" fill="#FFFFFF"></path>
                                        <path d="M0.928414916,10.642125 C0.539871228,10.9596176 0.238852119,11.5586912 0.197952784,12.1120588 L1.90754501,13.0963676 L2.7263497,11.6770368 L0.928414916,10.642125 Z" fill="#FFFFFF"></path>
                                        <path d="M1.92063279,11.0118529 L19.4132786,0.906772059 C19.9081605,0.621110294 20.309792,0.923095588 20.31061,1.58175 L20.325335,15.3131029 C20.3261518,15.9717574 19.9253383,16.7373309 19.4304563,17.0238088 L1.9386285,27.1297059 C1.44374654,27.4153676 1.04211507,27.1133824 1.04129708,26.4547279 L1.02656833,12.723375 C1.02493735,12.0639044 1.42575084,11.2975147 1.92063279,11.0118529 Z" fill="#D4ECFF"></path>
                                        <path d="M20.309792,1.58256618 C20.308974,1.07572059 20.0693039,0.787610294 19.7347474,0.807198529 C19.8091842,0.937786765 19.8631713,1.09694118 19.8631713,1.31077941 L19.877895,15.0421324 C19.878713,15.7007868 19.4778995,16.4671765 18.9830176,16.7528382 L1.49037179,26.8579191 C1.37585365,26.9240294 1.26869739,26.9517794 1.16808502,26.9574926 C1.32268451,27.2300956 1.60325395,27.3223235 1.93699253,27.1297059 L19.4288203,17.0238088 C19.9237023,16.7381471 20.3245158,15.9717574 20.323699,15.3139191 L20.309792,1.58256618 Z" fill="#FFFFFF"></path>
                                    </g>
                                    <path d="M19.4950773,58.5655588 L19.7756467,59.1450441 C20.0987514,59.8126765 20.6059032,60.3733897 21.2382069,60.7618897 L22.9756107,61.8302647 C23.5162999,62.1624485 24.2001368,62.1901985 24.7490059,61.8710735 C24.7686376,61.8596471 24.7882693,61.8474044 24.8079009,61.8351618 C25.360042,61.4899191 25.4099392,60.6990441 24.9559565,60.2330074 L23.140026,58.3704926 C23.140026,58.3704926 24.1600555,59.1507574 24.4463508,58.8365294 C24.6557554,58.6063676 23.4574049,57.4833088 22.5363518,57.4465809 C21.6161168,57.4098529 20.7253293,56.6883529 20.7253293,56.6883529 L19.4950773,58.5655588 Z" id="Path" fill="#FFC2B0"></path>
                                    <path d="M24.0987065,16.5520588 C24.0987065,16.5520588 30.7546643,23.7784853 33.4401147,30.4074706 C33.4401147,30.4074706 31.1636577,34.4989632 25.5923502,36.1043824 C20.0218607,37.7106176 24.0987065,16.5520588 24.0987065,16.5520588 Z" id="Path" fill="#6F64F8"></path>
                                    <path d="M26.8463238,35.6758897 L25.7673993,25.2769853 L28.309702,35.0196838 C27.8565374,35.2555588 27.3657454,35.4751103 26.8463238,35.6758897 Z" id="Path" fill="#6236FF"></path>
                                    <path d="M19.1138954,15.0935515 L20.9028324,14.6030294 C20.9028324,14.6030294 20.0488543,15.9431912 18.8022425,16.2851691 C17.5556308,16.6271471 17.3617679,15.5742794 17.3617679,15.5742794 L19.1138954,15.0935515 Z" id="Path" fill="#FFFFFF"></path>
                                </g>
                                <path d="M9.55981068,12.2369338 C9.55981068,12.7862206 10.0056134,13.2310368 10.5561185,13.2310368 C11.1066235,13.2310368 11.5524263,12.7862206 11.5524263,12.2369338 C11.5524263,11.6876471 11.1066235,11.2428309 10.5561185,11.2428309 C10.0056134,11.2428309 9.55981068,11.6876471 9.55981068,12.2369338 Z" id="Path" fill="#FFFFFF"></path>
                            </g>
                        </g>
                    </g>
                </g>
            </g>
        </g>
    </g>
</svg>