<?xml version="1.0" encoding="UTF-8"?>
<svg width="260px" height="178px" viewBox="0 0 260 178" version="1.1" xmlns="http://www.w3.org/2000/svg" xmlns:xlink="http://www.w3.org/1999/xlink">
    <!-- Generator: Sketch 58 (84663) - https://sketch.com -->
    <title>landing_confidentiality</title>
    <desc>Created with Sketch.</desc>
    <g id="Landing" stroke="none" stroke-width="1" fill="none" fill-rule="evenodd">
        <g id="Desktop-/-Landing" transform="translate(-386.000000, -1858.000000)" fill-rule="nonzero">
            <g id="Description" transform="translate(332.000000, 970.000000)">
                <g id="Group" transform="translate(0.000000, 58.000000)">
                    <g id="landing_confidentiality" transform="translate(0.000000, 733.000000)">
                        <rect id="Rectangle" x="0" y="-2.84217094e-14" width="367" height="371.988672"></rect>
                        <g id="pic" transform="translate(54.000000, 97.000000)">
                            <path d="M152.359879,157.729297 L69.9750843,109.776519 C68.6749719,109.019536 68.6749719,107.128271 69.9750843,106.371884 L147.935713,61 L235.024916,111.69103 C236.325028,112.447416 236.325028,114.339278 235.024916,115.095664 L161.769287,157.729297 C158.858076,159.423866 155.27109,159.42327 152.359879,157.729297 Z" id="Path" fill="#173D7A" opacity="0.5"></path>
                            <g id="Group" transform="translate(61.000000, 26.000000)">
                                <g id="Path">
                                    <path d="M88.8601717,6.51781731 C88.8649003,1.21580769 85.1292862,-0.944379808 80.532836,1.70248558 L2.4038328,46.6950577 C1.14009003,47.4224135 0.114186495,49.1946779 0.113002191,50.6523462 C0.111819936,52.1100144 1.13535691,52.7019519 2.39909968,51.9740048 L80.5281029,6.98202404 C82.601209,5.78809615 84.2856077,6.76204327 84.2838328,9.15344712 L84.2761415,17.8864471 C85.7919228,17.7918317 87.3136206,17.790649 88.850701,17.8172596 L88.8601717,6.51781731 Z" fill="#D4ECFF"></path>
                                    <path d="M2.37010932,67.6777933 L80.4991125,39.221625 C85.0955627,36.5747596 88.8388682,30.1077981 88.8436013,24.8057885 L88.8501093,17.8172596 C87.3136206,17.790649 85.7919228,17.7918317 84.2755498,17.8864471 L84.2672669,27.4414183 C84.2649003,29.8328221 82.5769518,32.74875 80.5038457,33.9426779 L2.37484244,62.3988462 C1.11109968,63.1262019 0.0857877814,64.8984663 0.0840118368,66.3561346 C0.082829582,67.8132115 1.10636656,68.405149 2.37010932,67.6777933 Z" fill="#5793CE"></path>
                                </g>
                                <polygon id="Path" fill="#5793CE" points="0.675652733 67.7824615 95.7166817 122.749861 176.182662 74.785774 182.567048 65.2627356 181.904412 68.6369567 180.188656 59.8028365 30.8220707 65.4975 4.50592926 63.8032933"></polygon>
                                <polygon id="Path" fill="#86B8E0" points="3.82731833 51.1946106 3.80187781 62.8878894 95.6581093 116.004375 98.1400386 104.859865"></polygon>
                                <polygon id="Path" fill="#D4ECFF" points="181.382585 56.043649 86.4930161 1.17263942 0.940115756 50.9001202 0.763215434 52.12125 95.7930032 107.072683"></polygon>
                                <path d="M151.132039,84.2212933 L173.442778,70.9934712 C175.322418,69.6729952 176.796193,67.0048413 176.797968,64.7742837 L176.814536,63.0227163 C176.815717,61.605851 176.222302,60.6922212 175.309402,60.4261154 L131.390199,84.8469375 L95.6249775,104.181 L95.6575177,116.004375 L151.132039,84.2212933 Z" id="Path" fill="#FFFFFF"></path>
                                <path d="M98.8322572,105.260798 L4.54438585,50.7380913 L2.54582637,49.582601 L0.720025723,48.5270481 C0.346700965,49.2118269 0.112410521,49.9657933 0.112410521,50.6523462 C0.112410521,51.3690577 0.360308682,51.8728846 0.762623794,52.1171106 L0.763215434,52.12125 L0.778006431,52.1301202 L0.785106109,52.1342596 L95.7924116,107.073274 L98.8322572,105.260798 Z" id="Path" fill="#5793CE"></path>
                                <polygon id="Path" fill="#FFFFFF" points="94.531627 122.06449 95.7166817 122.749861 95.9349968 122.37199 95.1972219 121.79188"></polygon>
                                <polygon id="Path" fill="#FFFFFF" points="94.5623923 106.358928 95.7764373 107.061447 95.4723344 106.398548"></polygon>
                                <path d="M97.4324373,101.645899 L175.561441,56.6539183 C180.157891,54.0070529 183.893505,56.1672404 183.888776,61.46925 L183.872206,63.2208173 C183.867473,68.5228269 180.124167,74.9897885 175.527717,77.6366538 L97.3987138,122.628635 C96.1349711,123.35599 95.1114341,122.764053 95.1126163,121.306976 C95.1138006,119.849308 96.1397042,118.077635 97.4034469,117.349687 L175.53245,72.3577067 C177.605556,71.1637788 179.293505,68.247851 179.295871,65.8564471 L179.312437,64.1048798 C179.314804,61.713476 177.630405,60.7395288 175.556707,61.9334567 L97.4277042,106.925437 C96.1639614,107.652793 95.1404244,107.060856 95.1416077,105.603779 C95.142791,104.145519 96.1686945,102.373846 97.4324373,101.645899 Z" id="Path" fill="#D4ECFF"></path>
                                <polygon id="Path" fill="#FFFFFF" points="62.6357299 58.02525 103.235241 34.6451971 138.446096 55.0058365 97.8465852 78.3858894"></polygon>
                                <g transform="translate(93.479100, 54.403846)" fill="#FFFFFF" id="Path">
                                    <path d="M1.63351768,66.9031298 C1.63470096,65.4454615 2.6606045,63.6737885 3.92434727,62.9458413 L82.0533505,17.9538606 C84.1264566,16.7599327 85.8144051,13.8440048 85.8167717,11.452601 L85.8333391,9.70103365 C85.8345209,8.13514904 85.1103537,7.18308173 84.0306109,7.04293269 C84.3784952,7.49945192 84.5826109,8.15170673 84.5814277,8.97722596 L84.5648617,10.7293846 C84.5624952,13.1207885 82.8745466,16.0367163 80.8014405,17.2306442 L2.6724373,62.222625 C1.40869453,62.9499808 0.382790997,64.7222452 0.381607271,66.1799135 C0.381607271,67.2845481 0.969106109,67.8883125 1.80390997,67.8013846 C1.69563987,67.5553846 1.63351768,67.2561635 1.63351768,66.9031298 Z"></path>
                                    <path d="M1.66250804,51.1993413 C1.66369132,49.7422644 2.68959486,47.97 3.95333762,47.2420529 L82.0823408,2.24948077 C84.0619678,1.10936538 85.8794855,0.865730769 87.3094791,1.3760625 C85.781865,0.0739182692 83.447254,0.0183317308 80.8304309,1.52567308 L2.70142765,46.5176538 C1.43768489,47.2450096 0.41237299,49.017274 0.41059629,50.4749423 C0.409414791,51.5795769 0.998096463,52.1833413 1.83290032,52.0964135 C1.72403859,51.8521875 1.66250804,51.552375 1.66250804,51.1993413 Z"></path>
                                </g>
                            </g>
                            <g id="Group" transform="translate(0.000000, 61.000000)">
                                <path d="M22.9005952,43.1770811 L1.46607143,30.8148649 C0.150595238,30.0561622 0.31547619,28.7308108 1.83452381,27.854973 L22.5315476,15.9184865 C24.0505952,15.0426486 26.3482143,14.9475135 27.6636905,15.7062162 L49.0982143,28.0678378 C50.4136905,28.8265405 50.2488095,30.1518919 48.7297619,31.0277297 L28.0327381,42.9642162 C26.5142857,43.8406486 24.2160714,43.9357838 22.9005952,43.1770811 Z" id="Path" fill="#173D7A" opacity="0.5"></path>
                                <path d="M49.9797619,22.090973 L49.9797619,22.090973 L49.9797619,14.7031351 L33.3958333,14.6936216 L27.6636905,11.3876757 C26.3482143,10.628973 24.0505952,10.7241081 22.5315476,11.5999459 L17.1833333,14.6841081 L0.58452381,14.6751892 L0.58452381,22.2729189 C0.54702381,22.7866486 0.833928571,23.2819459 1.46607143,23.6464324 L22.9005952,36.0086486 C24.2160714,36.7673514 26.5142857,36.6722162 28.0327381,35.7963784 L48.7297619,23.8598919 C49.6065476,23.3550811 50.0291667,22.7004324 49.9797619,22.090973 Z" id="Path" fill="#396CAA"></path>
                                <path d="M25.2827381,10.8798919 C24.3202381,10.9030811 23.3208333,11.1456757 22.5315476,11.6005405 L17.1833333,14.6847027 L0.58452381,14.6757838 L0.58452381,22.2735135 C0.54702381,22.7872432 0.833928571,23.2825405 1.46607143,23.647027 L22.9005952,36.0092432 C23.5327381,36.3737297 24.3922619,36.539027 25.2827381,36.5176216 L25.2827381,10.8798919 Z" id="Path" fill="#396CAA"></path>
                                <path d="M2.46309524,14.676973 L0.58452381,14.6757838 L0.58452381,22.2735135 C0.54702381,22.7872432 0.833928571,23.2825405 1.46607143,23.647027 L2.46309524,24.222 L2.46309524,14.676973 Z" id="Path" fill="#5793CE"></path>
                                <path d="M23.2309524,36.170973 C24.3654762,36.6567568 26.0065476,36.6294054 27.3339286,36.124 L27.3339286,27.497027 L23.2309524,27.497027 L23.2309524,36.170973 Z" id="Path" fill="#5793CE"></path>
                                <path d="M22.9005952,28.4388649 L1.46607143,16.0772432 C0.150595238,15.3185405 0.31547619,13.9931892 1.83452381,13.1173514 L22.5315476,1.18086486 C24.0505952,0.305027027 26.3482143,0.209891892 27.6636905,0.968594595 L49.0982143,13.3308108 C50.4136905,14.0895135 50.2488095,15.4148649 48.7297619,16.2907027 L28.0327381,28.2271892 C26.5142857,29.1024324 24.2160714,29.1975676 22.9005952,28.4388649 Z" id="Path" fill="#D4ECFF"></path>
                                <path d="M48.7303571,14.8363243 L28.0333333,26.7728108 C26.5142857,27.6486486 24.2166667,27.7437838 22.9011905,26.9850811 L1.46666667,14.6228649 C1.17321429,14.4534054 0.957738095,14.2554054 0.810119048,14.0407568 C0.358333333,14.7673514 0.563095238,15.5551892 1.46666667,16.0766486 L22.9011905,28.4388649 C24.2166667,29.1975676 26.514881,29.1024324 28.0333333,28.2265946 L48.7303571,16.2901081 C49.9107143,15.6092973 50.2690476,14.6585405 49.7553571,13.9117297 C49.5488095,14.2429189 49.2059524,14.5616216 48.7303571,14.8363243 Z" id="Path" fill="#FFFFFF"></path>
                                <g transform="translate(39.880952, 19.621622)" fill="#D4ECFF" id="Path">
                                    <path d="M2.21488095,4.41902703 C2.21488095,4.97021622 1.82738095,5.64091892 1.34940476,5.91681081 C0.871428571,6.1927027 0.483928571,5.96913514 0.483928571,5.41735135 C0.483928571,4.86616216 0.871428571,4.19545946 1.34940476,3.91956757 C1.82738095,3.64427027 2.21488095,3.86783784 2.21488095,4.41902703 Z"></path>
                                    <path d="M5.00059524,2.81302703 C5.00059524,3.36421622 4.61309524,4.03491892 4.13511905,4.31081081 C3.65714286,4.5867027 3.26964286,4.36313514 3.26964286,3.81135135 C3.26964286,3.26016216 3.65714286,2.58945946 4.13511905,2.31356757 C4.61309524,2.03767568 5.00059524,2.26124324 5.00059524,2.81302703 Z"></path>
                                    <path d="M7.78630952,1.20643243 C7.78630952,1.75821622 7.39880952,2.42832432 6.92083333,2.70421622 C6.44285714,2.98010811 6.05535714,2.75654054 6.05535714,2.20475676 C6.05535714,1.65356757 6.44285714,0.982864865 6.92083333,0.706972973 C7.39821429,0.431081081 7.78630952,0.654648649 7.78630952,1.20643243 Z"></path>
                                </g>
                                <g transform="translate(13.690476, 7.135135)" id="Path">
                                    <path d="M10.4779762,13.6394054 L0.447619048,7.85459459 C-0.167857143,7.49962162 -0.0904761905,6.87945946 0.620238095,6.46918919 L10.3053571,0.883567568 C11.0160714,0.473891892 12.0916667,0.429297297 12.7071429,0.78427027 L22.7375,6.56908108 C23.3529762,6.92405405 23.2761905,7.54421622 22.564881,7.95448649 L12.8797619,13.5401081 C12.1684524,13.9503784 11.0934524,13.9943784 10.4779762,13.6394054 Z" fill="#5793CE"></path>
                                    <path d="M11.4380952,8.79583784 L10.0505952,7.99551351 C9.96547619,7.94616216 9.97619048,7.86054054 10.0744048,7.80405405 L11.4142857,7.03108108 C11.5125,6.97459459 11.6613095,6.96805405 11.7464286,7.01740541 L13.1339286,7.81772973 C13.2190476,7.86708108 13.2083333,7.9527027 13.110119,8.00918919 L11.7702381,8.78216216 C11.6720238,8.83864865 11.5232143,8.84518919 11.4380952,8.79583784 Z" fill="#D4ECFF"></path>
                                    <path d="M0.447619048,7.85459459 L0.476190476,7.87064865 C0.522619048,7.83735135 0.566071429,7.80286486 0.620238095,7.77194595 L10.3053571,2.18632432 C11.0160714,1.77605405 12.0916667,1.73205405 12.7071429,2.08702703 L22.7089286,7.85518919 C23.2761905,7.44967568 23.3059524,6.8972973 22.7375,6.56908108 L12.7071429,0.78427027 C12.0916667,0.429297297 11.0160714,0.473891892 10.3053571,0.883567568 L0.620238095,6.46918919 C-0.0910714286,6.87945946 -0.168452381,7.49962162 0.447619048,7.85459459 Z" fill="#396CAA"></path>
                                </g>
                            </g>
                            <g id="Group" transform="translate(188.000000, 133.000000)">
                                <path d="M22.7440476,43.0700541 L1.30952381,30.7084324 C-0.00595238095,29.9497297 0.158928571,28.6243784 1.67797619,27.7485405 L22.375,15.8120541 C23.8940476,14.9362162 26.1916667,14.8410811 27.5071429,15.5997838 L48.9416667,27.9614054 C50.2571429,28.7201081 50.0922619,30.0454595 48.5732143,30.9212973 L27.8761905,42.8577838 C26.3571429,43.7336216 24.0595238,43.8287568 22.7440476,43.0700541 Z" id="Path" fill="#173D7A" opacity="0.5"></path>
                                <path d="M49.8232143,21.9845405 L49.8232143,21.9845405 L49.8232143,14.5967027 L33.2392857,14.5871892 L27.5071429,11.2812432 C26.1916667,10.5225405 23.8940476,10.6176757 22.375,11.4941081 L17.0267857,14.5782703 L0.42797619,14.5687568 L0.42797619,22.1670811 C0.39047619,22.6808108 0.677380952,23.1761081 1.30952381,23.5405946 L22.7440476,35.9028108 C24.0595238,36.6615135 26.3577381,36.5663784 27.8767857,35.6905405 L48.5738095,23.7540541 C49.4494048,23.2480541 49.8720238,22.5934054 49.8232143,21.9845405 Z" id="Path" fill="#396CAA"></path>
                                <path d="M25.1255952,10.7728649 C24.1630952,10.7960541 23.1636905,11.0386486 22.3744048,11.4935135 L17.0261905,14.5776757 L0.427380952,14.5681622 L0.427380952,22.1664865 C0.389880952,22.6802162 0.676785714,23.1755135 1.30892857,23.54 L22.7434524,35.9022162 C23.3755952,36.2667027 24.235119,36.432 25.1255952,36.4105946 L25.1255952,10.7728649 L25.1255952,10.7728649 Z" id="Path" fill="#396CAA"></path>
                                <path d="M2.30654762,14.5699459 L0.42797619,14.5687568 L0.42797619,22.1670811 C0.39047619,22.6808108 0.677380952,23.1761081 1.30952381,23.5405946 L2.30654762,24.1155676 L2.30654762,14.5699459 Z" id="Path" fill="#5793CE"></path>
                                <path d="M23.0738095,36.0639459 C24.2083333,36.5497297 25.85,36.5223784 27.1767857,36.016973 L27.1767857,27.39 L23.0738095,27.39 L23.0738095,36.0639459 Z" id="Path" fill="#5793CE"></path>
                                <path d="M22.7440476,28.3318378 L1.30952381,15.9696216 C-0.00595238095,15.2109189 0.158928571,13.8855676 1.67797619,13.0097297 L22.375,1.07324324 C23.8940476,0.197405405 26.1916667,0.10227027 27.5071429,0.860972973 L48.9416667,13.2225946 C50.2571429,13.9812973 50.0922619,15.3066486 48.5732143,16.1824865 L27.8761905,28.118973 C26.3571429,28.9954054 24.0595238,29.0905405 22.7440476,28.3318378 Z" id="Path" fill="#D4ECFF"></path>
                                <path d="M48.5732143,14.7292973 L27.8761905,26.6657838 C26.3571429,27.5416216 24.0595238,27.6373514 22.7440476,26.8780541 L1.30952381,14.5158378 C1.01607143,14.346973 0.800595238,14.1483784 0.65297619,13.9343243 C0.201190476,14.6609189 0.405952381,15.4487568 1.30952381,15.9702162 L22.7440476,28.3324324 C24.0595238,29.0911351 26.3577381,28.996 27.8761905,28.1195676 L48.5732143,16.1830811 C49.7535714,15.5022703 50.1119048,14.5515135 49.5982143,13.8047027 C49.3916667,14.1358919 49.0494048,14.4545946 48.5732143,14.7292973 Z" id="Path" fill="#FFFFFF"></path>
                                <g transform="translate(39.880952, 19.621622)" fill="#D4ECFF" id="Path">
                                    <path d="M2.05833333,4.312 C2.05833333,4.86378378 1.67083333,5.53389189 1.19285714,5.80978378 C0.714880952,6.08567568 0.327380952,5.86210811 0.327380952,5.31032432 C0.327380952,4.75913514 0.714880952,4.08843243 1.19285714,3.81254054 C1.6702381,3.53724324 2.05833333,3.76081081 2.05833333,4.312 Z"></path>
                                    <path d="M4.84345238,2.706 C4.84345238,3.25778378 4.45595238,3.92789189 3.97738095,4.20378378 C3.49940476,4.47967568 3.11130952,4.25610811 3.11130952,3.70432432 C3.11130952,3.15254054 3.49880952,2.48243243 3.97738095,2.20654054 C4.45595238,1.93064865 4.84345238,2.15421622 4.84345238,2.706 Z"></path>
                                    <path d="M7.62916667,1.09940541 C7.62916667,1.65059459 7.24166667,2.3212973 6.76369048,2.59718919 C6.28571429,2.87308108 5.89761905,2.64951351 5.89761905,2.09772973 C5.89761905,1.54594595 6.28511905,0.875837838 6.76369048,0.599945946 C7.24166667,0.324054054 7.62916667,0.547621622 7.62916667,1.09940541 Z"></path>
                                </g>
                                <g transform="translate(13.095238, 7.135135)" id="Path">
                                    <path d="M10.9160714,13.5323784 L0.885714286,7.74756757 C0.270238095,7.39259459 0.34702381,6.77243243 1.05833333,6.36275676 L10.7434524,0.777135135 C11.4541667,0.366864865 12.5297619,0.322864865 13.1452381,0.677837838 L23.1755952,6.46264865 C23.7910714,6.81762162 23.7142857,7.43778378 23.0029762,7.84745946 L13.3178571,13.4330811 C12.6071429,13.8427568 11.5315476,13.8873514 10.9160714,13.5323784 Z" fill="#5793CE"></path>
                                    <path d="M11.8761905,8.68881081 L10.4886905,7.88848649 C10.4035714,7.83913514 10.4142857,7.75351351 10.5125,7.69702703 L11.852381,6.92405405 C11.9505952,6.86756757 12.0994048,6.86102703 12.1845238,6.91037838 L13.5720238,7.7107027 C13.6571429,7.76005405 13.6464286,7.84567568 13.5482143,7.90216216 L12.2083333,8.67513514 C12.110119,8.73221622 11.9613095,8.73816216 11.8761905,8.68881081 Z" fill="#D4ECFF"></path>
                                    <path d="M0.885714286,7.74756757 L0.914285714,7.76362162 C0.960714286,7.73032432 1.00416667,7.69583784 1.05833333,7.66432432 L10.7434524,2.0787027 C11.4541667,1.66843243 12.5297619,1.62443243 13.1452381,1.97940541 L23.1470238,7.74756757 C23.7142857,7.34205405 23.7440476,6.78967568 23.1755952,6.46145946 L13.1452381,0.676648649 C12.5297619,0.321675676 11.4541667,0.36627027 10.7434524,0.775945946 L1.05833333,6.36156757 C0.34702381,6.77243243 0.270238095,7.39259459 0.885714286,7.74756757 Z" fill="#396CAA"></path>
                                </g>
                            </g>
                            <path d="M41.2302917,126.708844 C42.87009,125.763719 45.5288551,125.763719 47.1692441,126.708844 L123.770151,170.868541 C125.40995,171.813666 125.40995,173.346031 123.770151,174.291156 C122.130353,175.236281 119.470997,175.236281 117.831199,174.291156 L41.2302917,130.131459 C39.5899028,129.186334 39.5899028,127.653969 41.2302917,126.708844 Z" id="Path" fill="#173D7A" opacity="0.5"></path>
                            <g id="Group" transform="translate(33.000000, 109.000000)">
                                <path d="M0.565245614,0.380805825 L0.565245614,0.380805825 C0.631397661,0.268281553 0.761929825,0.210834951 0.889508772,0.23807767 L5.06063158,1.14478641 L3.41805263,3.94664078 L0.598912281,0.733776699 C0.512678363,0.636058252 0.499684211,0.493330097 0.565245614,0.380805825 Z" id="Path" fill="#D4ECFF"></path>
                                <g transform="translate(1.771930, 0.592233)">
                                    <path d="M0.438212935,1.85546602 C0.442982456,1.25198058 0.87119883,0.521757282 1.39450877,0.224456311 C1.63667251,0.0870582524 1.85402924,0.0704757282 2.02,0.146873786 C6.83964912,0.107786408 11.580152,1.37990291 15.7353275,3.82878641 L16.0365556,4.00645631 L10.8560234,12.8437573 L9.32625731,11.8268932 C6.08835088,9.67412621 3.35957895,6.8373301 1.3307193,3.51490291 L0.675695906,2.44236893 C0.528035088,2.33339806 0.435894737,2.13440777 0.438212935,1.85546602 Z" id="Path" fill="#6F64F8"></path>
                                    <ellipse id="Oval" fill="#D4ECFF" transform="translate(13.454016, 8.429289) rotate(-59.550142) translate(-13.454016, -8.429289) " cx="13.4540159" cy="8.42928879" rx="5.12181274" ry="2.95358344"></ellipse>
                                    <polygon id="Path" fill="#D4ECFF" points="41.6031404 32.0498738 10.8560234 12.843165 16.0371462 4.00586408 47.7245673 21.6076214"></polygon>
                                    <path d="M40.3734211,29.2675631 C40.3946842,26.5367767 42.3325848,23.230932 44.701655,21.8836019 C47.0713158,20.5362718 48.9743684,21.6585534 48.9531053,24.3893398 C48.9318421,27.1201262 46.9939415,30.4259709 44.6248713,31.773301 C42.2558012,33.1206311 40.3521579,31.9983495 40.3734211,29.2675631 Z" id="Path" fill="#D4ECFF"></path>
                                </g>
                                <g transform="translate(43.707602, 22.504854)">
                                    <path d="M0.191959064,8.38898058 C0.213222222,5.65819417 2.15112281,2.35234951 4.52019298,1.00501942 C6.8898538,-0.34231068 8.79290643,0.779970874 8.77164327,3.51075728 C8.75038012,6.24154369 6.81247953,9.54738835 4.44281871,10.8947184 C2.07433918,12.2414563 0.170695906,11.119767 0.191959064,8.38898058 Z" id="Path" fill="#D4ECFF"></path>
                                    <polygon id="Rectangle" fill="#D4ECFF" transform="translate(24.813383, 17.928726) rotate(-59.555081) translate(-24.813383, -17.928726) " points="18.7892376 -5.67208373 30.8930049 -5.68628665 30.837528 41.5295356 18.7337606 41.5437385"></polygon>
                                    <path d="M40.8695614,32.363165 C40.8908246,29.6323786 42.8287251,26.326534 45.1977953,24.9792039 C47.5674561,23.6318738 49.4705088,24.7541553 49.4492456,27.4849417 C49.4279825,30.2157282 47.4900819,33.5215728 45.1210117,34.8689029 C42.7513509,36.216233 40.8482982,35.0939515 40.8695614,32.363165 Z" id="Path" fill="#D4ECFF"></path>
                                    <path d="M42.4046433,31.4902136 C42.4985556,29.8781553 43.8074211,27.8704854 45.3289181,27.0058252 C46.8504152,26.141165 48.0074854,26.7464272 47.9135731,28.3584854 C47.8196608,29.9705437 46.5107953,31.9782136 44.9892982,32.8428738 C43.4683918,33.7081262 42.3113216,33.1022718 42.4046433,31.4902136 Z" id="Path" fill="#396CAA"></path>
                                </g>
                                <g transform="translate(40.754386, 20.728155)" id="Path">
                                    <path d="M1.08205848,8.94923301 C1.10332164,6.2184466 3.04122222,2.91260194 5.41088304,1.56586408 C6.36536257,1.02337864 7.24069591,0.887165049 7.94887719,1.08970874 C7.17985965,0.283679612 5.91824561,0.18892233 4.48239181,1.00501942 C2.11273099,2.35234951 0.174830409,5.65819417 0.153567251,8.38838835 C0.141163743,10.0193981 0.818040936,11.0706117 1.86702339,11.3702816 C1.36733918,10.8467476 1.07378947,10.0253204 1.08205848,8.94923301 Z" fill="#FFFFFF"></path>
                                    <path d="M1.08205848,8.94982524 C1.10332164,6.21903883 3.04122222,2.91319417 5.4102924,1.56586408 C6.59512281,0.892495146 7.66359649,0.83623301 8.43261404,1.2898835 L10.7373041,2.64846602 L9.63929825,4.52169903 C9.43907018,7.00552427 7.7811345,9.83343689 5.71447368,11.2168932 L4.61646784,13.0907184 L2.31177778,11.7327282 L2.31177778,11.7327282 C1.54216959,11.2778932 1.0714269,10.3149223 1.08205848,8.94982524 Z" fill="#6F64F8"></path>
                                    <path d="M3.38674854,10.3078155 C3.4080117,7.57702913 5.34591228,4.27118447 7.7155731,2.9244466 C10.0846433,1.5771165 11.9882865,2.69939806 11.9670234,5.43018447 C11.9457602,8.16097087 10.0078596,11.4668155 7.63878947,12.8135534 C5.2697193,14.1602913 3.36548538,13.0391942 3.38674854,10.3078155 Z" fill="#D4ECFF"></path>
                                </g>
                                <g transform="translate(87.415205, 50.339806)" id="Path">
                                    <path d="M0.0815087719,3.6671068 C0.0909590643,2.48856311 0.926719298,1.06246602 1.94912281,0.481485437 C2.97152632,-0.0994951456 3.79252047,0.384359223 3.78366082,1.56290291 C3.77421053,2.74085437 2.93845029,4.16754369 1.91604678,4.74852427 C0.893643275,5.32950485 0.0726491228,4.84565049 0.0815087719,3.6671068 Z" fill="#FF2C9C"></path>
                                    <path d="M0.0814281131,3.6671068 C0.0909590643,2.48856311 0.926719298,1.06246602 1.94912281,0.481485437 C2.46061988,0.190699029 2.92132164,0.166417476 3.25326316,0.362446602 L11.874883,5.44380583 C13.1158246,6.17521359 13.5304561,7.77661165 12.8010117,9.02030097 C12.0715673,10.2645825 10.4744678,10.6803301 9.23352632,9.94892233 L0.611906433,4.86756311 L0.611906433,4.86756311 C0.279964912,4.67212621 0.0767836257,4.25637864 0.0814281131,3.6671068 Z" fill="#6F64F8"></path>
                                </g>
                                <g transform="translate(53.748538, 24.873786)" id="Path">
                                    <path d="M24.1655789,13.2298932 L25.4579064,12.4943398 C26.2009357,12.0726699 27.1831754,12.1774951 28.2238889,12.7910485 L32.6543041,15.4022039 C33.490655,15.8949417 34.1651696,17.0871068 34.1574912,18.0601456 L34.1403626,20.2833883 C34.1374094,20.6559029 34.3199181,21.0846796 34.5862982,21.4003398 L34.4203275,22.430233 L35.5248304,21.7959515 L35.5224678,21.794767 C35.6819415,21.7136311 35.7841228,21.5270777 35.7858947,21.253466 L35.8031577,19.0302233 C35.8189708,17.0018252 34.4126491,14.5156311 32.6690702,13.4881068 L28.238655,10.8769515 C26.7585029,10.0045922 25.3616316,9.85475728 24.3049708,10.4552816 L23.0126433,11.190835 C22.2702047,11.6125049 21.2879649,11.5076796 20.2466608,10.8941262 L2.38738012,0.368368932 C2.15702924,0.23215534 1.94794152,0.220902913 1.79732749,0.31092233 L1.79732749,0.309145631 L0.695187135,0.942242718 L1.63903509,1.30646602 C1.76956725,1.7044466 2.04716959,2.09058252 2.37261404,2.28246602 L20.2318947,12.8082233 C21.7120468,13.6805825 23.1095088,13.8304175 24.1655789,13.2298932 Z" fill="#5793CE"></path>
                                    <path d="M24.3392281,13.1369126 C25.0822573,12.7152427 26.0644971,12.820068 27.1046199,13.4336214 L31.5350351,16.0447767 C32.371386,16.5375146 33.0453099,17.7296796 33.0382222,18.7027184 L33.0210936,20.9265534 C33.0169591,21.4548252 33.3819766,22.1009515 33.8367719,22.3686408 C34.2909766,22.6363301 34.6630819,22.4249029 34.6672164,21.8966311 L34.6844793,19.6733883 C34.7002924,17.6449903 33.2939708,15.1587961 31.5503918,14.1312718 L27.1199766,11.5201165 C25.6398246,10.6477573 24.2429532,10.4979223 23.1862924,11.0984466 L21.8939649,11.834 C21.1515263,12.2556699 20.1692865,12.1508447 19.1279825,11.5372913 L1.26870175,1.01153398 C0.814497076,0.74384466 0.442391813,0.955271845 0.438222531,1.48354369 C0.434122807,2.01181553 0.799140351,2.65794175 1.25393567,2.92563107 L19.1132164,13.4513883 C20.5939591,14.3237476 21.9908304,14.4735825 23.0469006,13.8736505 L24.3392281,13.1369126 Z" fill="#5793CE"></path>
                                    <path d="M33.0937427,19.0699029 L33.076614,21.2931456 C33.076614,21.3073592 33.0831111,21.3233495 33.0837018,21.3381553 C33.0429474,21.1983883 33.0205029,21.0586214 33.0210936,20.9259612 L33.0382222,18.7027184 C33.0388129,18.6393495 33.0287719,18.5730194 33.0234561,18.508466 C33.0659825,18.699165 33.0955146,18.8886796 33.0937427,19.0699029 Z" fill="#FFFFFF"></path>
                                </g>
                            </g>
                            <polygon id="Path" fill="#173D7A" opacity="0.5" points="140 55.9126447 188.715408 84 218 67.1156996 169.335446 39"></polygon>
                            <g id="Group" transform="translate(139.000000, 0.000000)">
                                <g id="Path">
                                    <path d="M93.3354853,39.7110236 L86.8999461,36.011811 L110.627809,22.3724409 C111.748245,21.7281496 111.748245,20.6799213 110.627809,20.0356299 L86.3880686,6.1015748 C85.2670392,5.45728346 83.4437353,5.45728346 82.323299,6.1015748 L58.5954363,19.7409449 L52.1598971,16.0417323 L75.8877598,2.4023622 C80.5569363,-0.281692913 88.1544314,-0.281692913 92.8236078,2.4023622 L117.063941,16.3364173 C121.733118,19.0204724 121.733118,23.3875984 117.063941,26.0716535 L93.3354853,39.7110236 Z" fill="#6F64F8"></path>
                                    <g transform="translate(0.000000, 7.086614)">
                                        <path d="M103.719539,34.2531496 C103.719539,30.8273622 101.627544,26.8482283 99.0473971,25.3647638 L56.0568088,0.652559055 C54.9013775,-0.0118110236 53.8455931,-0.0584645669 53.0300294,0.39507874 L53.0276569,0.393307087 L1.69755882,30.0915354 L51.3354363,67.3322835 L101.905132,38.1088583 C102.061127,38.0379921 102.212377,37.9559055 102.351765,37.8507874 L102.352358,37.8501969 L102.352358,37.8501969 C103.197578,37.2135827 103.719539,35.9645669 103.719539,34.2531496 Z" fill="#D4ECFF"></path>
                                        <path d="M51.3354363,67.3322835 L101.905132,38.1094488 C102.061127,38.0385827 102.212377,37.9564961 102.351765,37.851378 L102.352358,37.8507874 L102.352358,37.8507874 C103.196985,37.2141732 103.718946,35.9645669 103.718946,34.2531496 C103.718946,32.6179134 103.238505,30.859252 102.459716,29.3031496 L44.8138922,62.4401575 L51.3354363,67.3322835 Z" fill="#396CAA"></path>
                                        <path d="M48.1028382,67.2 L5.11225,42.4877953 C2.53210294,41.0043307 0.440107843,37.0251969 0.440107843,33.6 L0.440107843,33.6 C0.440107843,30.1748031 2.53210294,28.5998031 5.11225,30.0832677 L48.1028382,54.7954724 C50.6829853,56.278937 52.7749804,60.2580709 52.7749804,63.6832677 L52.7749804,63.6832677 C52.7749804,67.1090551 50.6829853,68.6834646 48.1028382,67.2 Z" fill="#5793CE"></path>
                                        <path d="M48.6200539,54.5610236 L5.62946569,29.8488189 C4.44319118,29.1673228 3.36308824,29.1377953 2.53922059,29.6314961 C3.27708333,29.4082677 4.16085784,29.5364173 5.11225,30.0832677 L48.1028382,54.7954724 C50.6829853,56.278937 52.7749804,60.2580709 52.7749804,63.6832677 L52.7749804,63.6838583 C52.7749804,65.5340551 52.1610833,66.8379921 51.1930833,67.4179134 C52.457652,67.0346457 53.2927892,65.6125984 53.2927892,63.45 L53.2927892,63.4494094 C53.2921961,60.0242126 51.2007941,56.0450787 48.6200539,54.5610236 Z" fill="#FFFFFF"></path>
                                    </g>
                                    <path d="M41.6637402,65.9527559 L36.4951422,62.9840551 C35.9808922,62.688189 35.5639167,61.8950787 35.5639167,61.2124016 L35.5639167,61.2124016 C35.5639167,60.5297244 35.9808922,60.2155512 36.4951422,60.5114173 L41.6637402,63.4801181 C42.1779902,63.7759843 42.5949657,64.5690945 42.5949657,65.2517717 L42.5949657,65.2517717 C42.5949657,65.9344488 42.1779902,66.2480315 41.6637402,65.9527559 Z" fill="#FFFFFF"></path>
                                </g>
                                <g transform="translate(40.333333, 26.574803)" id="Path">
                                    <path d="M7.1597598,4.24133858 C8.71911765,3.3230315 8.70369608,1.86141732 7.12535784,0.976181102 C5.54701961,0.0909448819 3.0042402,0.117519685 1.44488235,1.03523622 C-0.11447549,1.95354331 -0.0990539216,3.41515748 1.47928431,4.3003937 C3.05762255,5.18562992 5.6009951,5.15905512 7.1597598,4.24133858 Z" fill="#5793CE"></path>
                                    <path d="M15.816598,9.09744094 C17.3759559,8.17972441 17.3605343,6.71751969 15.7821961,5.83228346 C14.2038578,4.94704724 11.6604853,4.97362205 10.1017206,5.89133858 C8.54236275,6.80964567 8.55778431,8.27125984 10.1361225,9.15649606 C11.7138676,10.0423228 14.2572402,10.015748 15.816598,9.09744094 Z" fill="#FFFFFF"></path>
                                    <path d="M24.4728431,13.9541339 C26.032201,13.0364173 26.0167794,11.5742126 24.4384412,10.6889764 C22.8601029,9.80374016 20.3173235,9.83031496 18.7579657,10.7480315 C17.1986078,11.6663386 17.2140294,13.1279528 18.7923676,14.013189 C20.3707059,14.8990157 22.9140784,14.8724409 24.4728431,13.9541339 Z" fill="#FFFFFF"></path>
                                </g>
                            </g>
                            <g id="Group" transform="translate(74.000000, 19.000000)">
                                <g>
                                    <g transform="translate(1.767123, 0.000000)">
                                        <path d="M15.6855753,92.4158182 C15.6855753,92.4158182 13.4766712,91.2984091 12.1206986,92.9624091 C10.764137,94.6258182 8.82560274,98.5535909 8.76552055,101.207955 C8.70543836,103.861727 10.8589726,103.682682 12.1395479,103.054545 C13.4195342,102.426409 17.1593562,96.9841364 17.386137,95.9181364 C17.6129178,94.8521364 17.1193014,93.4097273 16.7593973,93.1278636 C16.3983151,92.8448182 15.6855753,92.4158182 15.6855753,92.4158182 Z" id="Path" fill="#6F64F8"></path>
                                        <path d="M16.167411,91.8816364 L16.2699041,94.1773182 C16.2916986,94.6654091 16.0466575,95.1304545 15.623137,95.3715455 C15.2373151,95.5907727 14.677137,95.7591818 13.9196301,95.6374545 C12.255589,95.3691818 12.1071507,94.8923182 11.9887534,92.5972273 C11.8691781,90.3021364 16.167411,91.8816364 16.167411,91.8816364 Z" id="Path" fill="#D4ECFF"></path>
                                        <g transform="translate(0.000000, 40.772727)" id="Path">
                                            <path d="M7.60039726,47.229 C7.60039726,47.229 5.39149315,46.1115909 4.03552055,47.7755909 C2.6789589,49.4395909 0.739835616,53.3667727 0.680342466,56.0211364 C0.620260274,58.6749091 2.77379452,58.4958636 4.05436986,57.8677273 C5.33435616,57.2395909 9.07417808,51.7973182 9.3009589,50.7313182 C9.52715068,49.6647273 9.03412329,48.2229091 8.67421918,47.9410455 C8.31372603,47.6585909 7.60039726,47.229 7.60039726,47.229 Z" fill="#6F64F8"></path>
                                            <path d="M8.08223288,46.6954091 L8.18472603,48.9910909 C8.20652055,49.4791818 7.96147945,49.9442273 7.5379589,50.1853182 C7.15213699,50.4051364 6.5919589,50.5729545 5.83445205,50.4512273 C4.171,50.1829545 4.0219726,49.7060909 3.9029863,47.411 C3.78458904,45.1153182 8.08223288,46.6954091 8.08223288,46.6954091 Z" fill="#D4ECFF"></path>
                                            <path d="M27.7903699,4.55177273 C27.1365342,-6.11827273 16.2716712,6.12181818 16.2716712,6.12181818 L8.83561644,13.4337273 L2.13939726,20.813 C0.831726027,22.2542273 0.223246575,24.2000909 0.475945205,26.1323636 L3.18494521,46.8242273 C3.31865753,47.8459091 4.19043836,48.5999091 5.21772603,48.5917038 C5.50812329,48.5892727 5.84034247,48.5626818 6.22145205,48.5035909 C8.63769863,48.126 8.45980822,45.8208636 8.45980822,45.8208636 L7.96442466,26.468 L22.0271918,17.9636364 C22.0266027,17.9636364 28.4436164,15.2218182 27.7903699,4.55177273 Z" fill="#173D7A"></path>
                                        </g>
                                        <path d="M35.8749589,49.3899545 C35.2211233,38.7199091 24.3562603,50.96 24.3562603,50.96 L16.9196164,58.2719091 L10.2233973,65.6511818 C8.91572603,67.0924091 8.30724658,69.0382727 8.55994521,70.9705455 L11.2689452,91.6624091 C11.4026575,92.6840909 12.2744384,93.4380909 13.301726,93.4298856 C13.5915342,93.4274545 13.9243425,93.4008636 14.3054521,93.3417727 C16.7216986,92.9641818 16.5438082,90.6596364 16.5438082,90.6596364 L16.0631507,71.8634091 L30.1117808,62.8024091 C30.1111918,62.8018182 36.5287945,60.06 35.8749589,49.3899545 Z" id="Path" fill="#173D7A"></path>
                                        <path d="M29.4473425,15.1390909 C37.6844932,18.5651818 37.5195616,23.4496364 37.5195616,23.4496364 C37.5195616,23.4496364 35.9061781,41.3571364 36.4569315,53.3171364 C36.6872466,58.3168182 9.97776712,58.6979545 13.960863,45.3599545 C18.6572877,29.6329091 16.8972329,16.9011818 19.0955342,14.9807273 C21.2938356,13.0602727 27.3161918,14.2527273 29.4473425,15.1390909 Z" id="Path" fill="#6F64F8"></path>
                                        <path d="M32.0974384,19.4698636 C31.6668493,21.1474545 29.4756164,22.0320455 27.2030959,21.4446818 C24.9311644,20.8573182 23.4379452,19.0213636 23.8691233,17.3437727 C24.2997123,15.6661818 26.4909452,14.7815909 28.7634658,15.3689545 C31.0353973,15.9563182 32.5280274,17.7922727 32.0974384,19.4698636 Z" id="Path" fill="#FFC2B0"></path>
                                        <path d="M28.7988082,21.4813182 L27.2832055,23.1323182 C27.0864658,23.3468182 26.9928082,23.6363636 27.0257945,23.9253182 L28.0678082,32.9638636 C28.0972603,33.2173636 28.0271644,33.4720455 27.8728356,33.6747273 L24.6119041,37.9540909 C24.467589,38.1437727 24.1695342,38.0917727 24.0976712,37.8642727 L22.3223014,32.2589091 C22.2551507,32.0467727 22.2616301,31.8180909 22.3405616,31.6100909 L25.4636575,23.4011818 C25.5319863,23.2215455 25.5473014,23.0259545 25.5078356,22.8374545 L25.0507397,20.6611364 L28.7988082,21.4813182 Z" id="Path" fill="#FFFFFF"></path>
                                        <path d="M28.609137,22.022 C28.1149315,22.022 27.6077671,21.9575909 27.104137,21.8275909 C25.9248767,21.5226818 24.8993562,20.8927727 24.2166575,20.0530909 C23.506274,19.1785455 23.2465068,18.1816818 23.4874247,17.2456818 C23.7283425,16.3096818 24.4346027,15.5615909 25.4783836,15.1414545 C26.4803425,14.7372727 27.6808082,14.6835 28.8612466,14.9872273 C30.0405068,15.2921364 31.0660274,15.9220455 31.748726,16.7611364 C32.4596986,17.6356818 32.7188767,18.6331364 32.4785479,19.5691364 L32.4785479,19.5691364 C32.2382192,20.5051364 31.5313699,21.2532273 30.487,21.6739545 C29.913274,21.905 29.2729863,22.022 28.609137,22.022 Z M27.3556575,15.5816818 C26.7925342,15.5816818 26.2535616,15.6791818 25.771726,15.8735909 C24.9665068,16.1985909 24.4263562,16.7552273 24.2496438,17.4424545 C24.0729315,18.1290909 24.2785068,18.8789545 24.8263151,19.5531818 C25.4035753,20.2628636 26.2824247,20.7982273 27.3002877,21.0617727 C28.3175616,21.3253182 29.3460274,21.2827727 30.1924795,20.9400455 C30.9982877,20.6150455 31.5384384,20.0578182 31.7151507,19.3711818 L31.7151507,19.3711818 C31.891863,18.6845455 31.6862877,17.9346818 31.1378904,17.2604545 C30.5606301,16.5507727 29.6817808,16.0154091 28.6639178,15.7518636 C28.2250822,15.6384091 27.7833014,15.5816818 27.3556575,15.5816818 Z" id="Shape" fill="#FFFFFF"></path>
                                        <path d="M26.144589,14.7662273 C26.144589,14.7662273 26.215863,15.0977273 26.0733151,17.7160455 C26.0285479,18.5391818 28.9018904,19.3085455 29.6446712,18.5634091 C30.3874521,17.8182727 30.0905753,17.0435909 30.2684658,14.2415 C30.4463562,11.44 26.144589,14.7662273 26.144589,14.7662273 Z" id="Path" fill="#FFC2B0"></path>
                                        <path d="M30.2678767,14.2415 C30.2678767,14.2415 29.5604384,16.8391364 26.072137,17.8354091 L26.1251507,15.4747273 L30.2678767,14.2415 Z" id="Path" fill="#EA9C92"></path>
                                        <ellipse id="Oval" fill="#FFC2B0" transform="translate(26.336177, 9.237753) rotate(-67.975154) translate(-26.336177, -9.237753) " cx="26.336177" cy="9.23775273" rx="6.35757546" ry="6.34312409"></ellipse>
                                        <path d="M27.7956712,9.46754545 C27.7956712,9.46754545 24.3044247,10.9678636 21.887589,10.985 C19.4701644,11.0021364 20.0032466,8.97177273 20.0032466,8.97177273 L27.1789452,7.93177273 L27.7956712,9.46754545 Z" id="Path" fill="#EA9C92"></path>
                                        <path d="M21.1666027,9.86286364 C21.1666027,9.86286364 24.2078219,8.56759091 26.875589,9.10768182 C27.5029178,9.23472727 28.0843014,9.57095455 28.4877945,10.0690909 C28.6197397,10.2315909 28.7864384,10.3799091 28.9755205,10.4230455 C29.4485205,10.5305909 30.2231096,8.56168182 31.1426027,8.51677273 C32.0620959,8.47186364 32.6758767,9.12481818 31.9219041,10.3355909 C31.1679315,11.5463636 31.4229863,12.9019091 31.7699315,13.0957273 C32.1168767,13.2895455 36.4109863,10.2835909 33.1653699,3.83381818 C29.9197534,-2.61595455 21.0605753,1.03704545 19.7776438,2.34413636 C19.7776438,2.34413636 18.4269726,3.52477273 17.328411,2.47413636 C17.328411,2.47413636 16.096726,11.7277727 21.1666027,9.86286364 Z" id="Path" fill="#D4ECFF"></path>
                                        <path d="M32.8985342,36.5329545 L32.8985342,41.3719091 C32.8985342,41.9261818 32.665863,42.4550455 32.2570685,42.8285 L22.3482192,51.8912727 L23.4738767,53.6185 L37.1254932,44.6390455 C37.7363288,44.1946818 38.1303973,43.511 38.2093288,42.7581818 L39.1429589,33.7787273 L32.8985342,36.5329545 Z" id="Path" fill="#FFC2B0"></path>
                                        <path d="M36.822137,21.0298636 C36.822137,21.0298636 39.8280137,25.5650909 40.9483699,37.5032273 C40.9483699,37.5032273 35.8131096,39.1695909 32.8991233,38.2235455 C29.9839589,37.2775 36.822137,21.0298636 36.822137,21.0298636 Z" id="Path" fill="#6F64F8"></path>
                                        <path d="M32.3495479,26.7640455 C32.3495479,26.7640455 31.1726438,33.0826364 31.1054932,36.0525455 C31.0872329,36.8685909 31.5837945,37.6054545 32.3495479,37.8831818 L32.3495479,37.8831818 L32.3495479,26.7640455 Z" id="Path" fill="#6236FF"></path>
                                    </g>
                                    <g transform="translate(1.767123, 47.863636)" id="Path">
                                        <path d="M29.7789726,10.3196364 L27.5889178,10.0295 L13.4513425,1.84127273 C12.9977808,1.57890909 12.2066986,1.61140909 11.6830411,1.91454545 L1.66521918,7.71431818 L0.341054795,7.53881818 L0.341054795,8.86127273 L0.342232877,8.86127273 C0.33339726,9.03559091 0.432356164,9.20281818 0.646178082,9.32690909 L16.6680959,18.6065455 C17.1216575,18.8689091 17.9127397,18.8364091 18.4363973,18.5332727 L29.3460274,12.2164545 C29.6405479,12.0462727 29.7872192,11.8264545 29.7783836,11.6202273 L29.7783836,11.6202273 L29.7783836,10.3196364 L29.7789726,10.3196364 Z" fill="#5793CE"></path>
                                        <path d="M19.1562055,5.14563636 L18.1518904,4.56418182 L7.10913699,4.56418182 L1.66521918,7.71490909 L0.341054795,7.53940909 L0.341054795,8.86186364 L0.342232877,8.86186364 C0.33339726,9.03618182 0.432356164,9.20340909 0.646178082,9.3275 L16.6680959,18.6071364 C16.9078356,18.746 17.2418219,18.8015455 17.5805205,18.7785 L19.1562055,5.14563636 Z" fill="#396CAA"></path>
                                        <path d="M0.928328767,7.61740909 L0.340465753,7.53940909 L0.340465753,8.86186364 L0.341643836,8.86186364 C0.332808219,9.03618182 0.431767123,9.20340909 0.645589041,9.3275 L0.927739726,9.49118182 L0.927739726,7.61740909 L0.928328767,7.61740909 Z" fill="#5793CE"></path>
                                        <path d="M16.8294932,18.6827727 C17.2589041,18.8464545 17.873274,18.8104091 18.332137,18.5894091 L18.332137,16.3392273 L16.8294932,16.3392273 L16.8294932,18.6827727 Z" fill="#5793CE"></path>
                                        <path d="M16.6680959,17.2858636 L0.646178082,8.00622727 C0.193205479,7.74386364 0.249753425,7.28531818 0.773410959,6.98218182 L11.6830411,0.665363636 C12.2061096,0.362227273 12.9977808,0.329136364 13.4513425,0.5915 L29.4732603,9.87113636 C29.9262329,10.1335 29.8696849,10.5920455 29.3460274,10.8951818 L18.4363973,17.212 C17.9127397,17.5151364 17.1210685,17.5482273 16.6680959,17.2858636 Z" fill="#FFFFFF"></path>
                                        <path d="M16.397137,15.8789091 L3.07479452,8.16281818 C2.69780822,7.94477273 2.74493151,7.56304545 3.18023288,7.31131818 L9.02646575,4.01345455 C9.46176712,3.76172727 10.119726,3.73395455 10.4967123,3.952 L23.8190548,11.6680909 C24.1960411,11.8861364 24.1489178,12.2678636 23.7136164,12.5195909 L17.8673836,15.8174545 C17.4320822,16.0697727 16.7741233,16.0975455 16.397137,15.8789091 Z" fill="#D4ECFF"></path>
                                    </g>
                                    <path d="M14.0692466,48.2240909 L13.903726,49.3332273 C13.7623562,50.2780909 13.7870959,51.2406818 13.975589,52.1766818 L14.1729178,53.1540455 C14.2842466,53.7053636 14.7189589,54.1331818 15.2703014,54.2336364 L15.2703014,54.2336364 C15.7008904,54.3122273 16.1079178,54.0085 16.1568082,53.5718182 L16.4212877,51.2010909 C16.4212877,51.2010909 17.0256438,51.9958636 17.3178082,51.9958636 C17.6093836,51.9958636 16.9908904,49.6215909 16.3305753,48.2778636 C15.6708493,46.9347273 14.0692466,48.2240909 14.0692466,48.2240909 Z" id="Path" fill="#FFC2B0"></path>
                                    <path d="M19.5002055,30.5990455 L17.7807945,34.0121364 C17.3743562,34.8193182 17.1352055,35.7003636 17.0774795,36.6032727 L16.3311644,48.2784545 L14.0692466,48.2246818 L13.0425479,35.113 C13.0107397,34.7082273 13.0307671,34.3010909 13.100863,33.9010455 L14.2736438,27.2521364 L19.5002055,30.5990455 Z" id="Path" fill="#FFC2B0"></path>
                                    <g transform="translate(0.000000, 40.772727)" id="Path">
                                        <path d="M17.8927123,25.2678636 L16.5491096,23.5087273 L2.42154795,15.3033636 C1.96857534,15.0404091 1.60219178,14.3354545 1.60278082,13.7291818 L1.61515068,2.12609091 L0.802863014,1.06245455 L1.56626027,0.619272727 L1.56684932,0.620454545 C1.71293151,0.525909091 1.90731507,0.528272727 2.12054795,0.652363636 L18.131274,9.9515 C18.5842466,10.2144545 18.9506301,10.9194091 18.9500418,11.5256818 L18.9364932,24.1622727 C18.9359041,24.5032273 18.819274,24.7407727 18.6366712,24.8359091 L18.6366712,24.8359091 L17.8927123,25.2678636 Z" fill="#173D7A"></path>
                                        <path d="M8.12287671,18.6142273 L7.11915068,18.031 L1.60926027,8.4305 L1.61515068,2.1255 L0.802863014,1.06186364 L1.56626027,0.618681818 L1.56684932,0.619863636 C1.71293151,0.525318182 1.90731507,0.527681818 2.12054795,0.651772727 L18.131274,9.95090909 C18.3704247,10.0897727 18.5854247,10.3527273 18.7350411,10.6588182 L8.12287671,18.6142273 Z" fill="#396CAA"></path>
                                        <path d="M1.16335616,1.53459091 L0.802863014,1.06245455 L1.56626027,0.619272727 L1.56684932,0.620454545 C1.71293151,0.525909091 1.90731507,0.528272727 2.12054795,0.652363636 L2.40269863,0.816045455 L1.16335616,1.53459091 Z" fill="#5793CE"></path>
                                        <path d="M18.2767671,10.0537273 C18.6325479,10.3456364 18.9082192,10.8975455 18.9453288,11.4063182 L17.3808356,12.3127727 L16.6309863,11.0068636 L18.2767671,10.0537273 Z" fill="#274F89"></path>
                                        <path d="M17.3690548,10.3940909 L1.35832877,1.09495455 C0.905356164,0.832 0.537794521,1.11031818 0.536616438,1.716 L0.523067784,14.3525909 C0.522479452,14.9588636 0.888863014,15.6638182 1.34183562,15.9267727 L17.3525616,25.2259091 C17.8055342,25.4888636 18.1730959,25.2105455 18.174274,24.6048636 L18.1878226,11.9682727 C18.188411,11.362 17.8220274,10.6570455 17.3690548,10.3940909 Z" fill="#5793CE"></path>
                                    </g>
                                    <path d="M25.241,53.6185 L24.9841781,54.1515 C24.6890685,54.7654545 24.2243151,55.2819091 23.6458767,55.6394091 L22.0554658,56.6226818 C21.5606712,56.9287727 20.9339315,56.9535909 20.4320685,56.6605 C20.4138082,56.6498636 20.396137,56.6392273 20.3778767,56.628 C19.8724795,56.3100909 19.8265342,55.5820909 20.2423973,55.1536818 L21.9040822,53.4400455 C21.9040822,53.4400455 20.9704521,54.1574091 20.7089178,53.8684545 C20.5168904,53.6563182 21.614274,52.6228182 22.4566027,52.5891364 C23.2989315,52.5554545 24.1141644,51.8912727 24.1141644,51.8912727 L25.241,53.6185 Z" id="Path" fill="#FFC2B0"></path>
                                    <path d="M21.027589,14.9559091 C21.027589,14.9559091 14.935137,21.606 12.4776575,27.7065455 C12.4776575,27.7065455 14.5610959,31.4718182 19.6604247,32.9490909 C24.7597534,34.4263636 21.027589,14.9559091 21.027589,14.9559091 Z" id="Path" fill="#6F64F8"></path>
                                    <path d="M18.5129726,32.5543636 L19.5002055,22.9851818 L17.1734932,31.9510455 C17.5881781,32.1679091 18.0370274,32.3694091 18.5129726,32.5543636 Z" id="Path" fill="#6236FF"></path>
                                    <path d="M25.5903014,13.6133636 L23.9533562,13.1619091 C23.9533562,13.1619091 24.7350137,14.3951364 25.8759863,14.7095 C27.0169589,15.0238636 27.1942603,14.0547727 27.1942603,14.0547727 L25.5903014,13.6133636 Z" id="Path" fill="#FFFFFF"></path>
                                </g>
                                <path d="M34.3346164,10.985 C34.3346164,11.4902273 33.926411,11.8997273 33.4227808,11.8997273 C32.9191507,11.8997273 32.5109452,11.4902273 32.5109452,10.985 C32.5109452,10.4797727 32.9191507,10.0702727 33.4227808,10.0702727 C33.926411,10.0702727 34.3346164,10.4797727 34.3346164,10.985 Z" id="Path" fill="#FFFFFF"></path>
                            </g>
                            <g id="Group" transform="translate(140.000000, 81.000000)">
                                <g>
                                    <ellipse id="Oval" fill="#173D7A" opacity="0.5" cx="19.4279091" cy="25.1483898" rx="16.9011818" ry="9.79584746"></ellipse>
                                    <path d="M38.6555001,16.770339 L38.6555001,11.350678 L37.6361818,11.350678 C36.7208636,9.76855932 35.1969091,8.27898305 33.0235455,7.01957627 C25.5142727,2.66711864 13.3397727,2.66711864 5.83109091,7.01957627 C3.65772727,8.27898305 2.13377273,9.76915254 1.21845455,11.350678 L0.200909091,11.350678 L0.200909091,16.7412712 L0.202090909,16.7412712 C0.189090909,19.6029661 2.06404545,22.4676271 5.83168182,24.6512712 C13.3409545,29.0037288 25.5154545,29.0037288 33.0241364,24.6518644 C36.7787727,22.475339 38.6560909,19.6225424 38.6555001,16.770339 Z" id="Path" fill="#6F64F8"></path>
                                    <ellipse id="Oval" fill="#6F64F8" cx="19.4279091" cy="11.3500847" rx="19.2281818" ry="11.1448305"></ellipse>
                                    <path d="M33.0241364,19.2310169 C25.5154545,23.5834746 13.3409545,23.5834746 5.83168182,19.2310169 C2.23304545,17.1452542 0.378181818,14.4377966 0.228681818,11.7048305 C0.0661818182,14.6744915 1.92104545,17.6738136 5.83168182,19.9405085 C13.3409545,24.2929661 25.5154545,24.2929661 33.0241364,19.9405085 C36.9341818,17.6744068 38.7890455,14.6750847 38.6265455,11.7054237 C38.4770455,14.4377966 36.6227727,17.1452542 33.0241364,19.2310169 Z" id="Path" fill="#FFFFFF"></path>
                                </g>
                                <path d="M10.1600909,15.0399153 C9.83686364,14.8524576 9.6525,14.5973729 9.65367617,14.3286441 L9.67318182,7.06762712 C9.67436364,6.51415254 10.4508182,6.06567797 11.4063182,6.0662706 C12.3624091,6.0662706 13.1341364,6.51652542 13.1341364,7.07118644 L13.1181818,13.0923729 L30.5245909,10.9526271 C31.46,10.8375424 32.3782727,11.1839831 32.5768182,11.7255932 C32.7753636,12.2672034 32.1779545,12.7999153 31.2431364,12.915 L11.7437273,15.3122034 C11.232,15.3750847 10.6995909,15.3009322 10.2936364,15.1099153 C10.2469545,15.0879661 10.2020455,15.0648305 10.1600909,15.0399153 Z" id="Path" fill="#FFFFFF"></path>
                            </g>
                            <g id="Group" transform="translate(38.000000, 147.000000)">
                                <g id="Path">
                                    <polygon fill="#173D7A" opacity="0.5" points="10.6596 30.8099057 0.321 24.9912642 10.6596 19.1726226 20.9982 24.9912642"></polygon>
                                    <polygon fill="#6236FF" points="20.9982 17.6033208 10.6596 23.4219623 10.6596 11.7852642 20.9982 5.96662264"></polygon>
                                    <polygon fill="#6F64F8" points="10.6596 11.7852642 0.3216 5.96662264 10.6596 0.147981132 20.9976 5.96662264"></polygon>
                                    <polygon fill="#6F64F8" points="10.6596 23.4219623 0.3216 17.6033208 0.3216 5.96662264 10.6596 11.7852642"></polygon>
                                </g>
                                <polygon id="Path" fill="#FFFFFF" points="6.9366 17.1353962 4.0446 15.5081887 4.0446 12.2531887 6.9366 13.8809811"></polygon>
                            </g>
                        </g>
                    </g>
                </g>
            </g>
        </g>
    </g>
</svg>