<?xml version="1.0" encoding="UTF-8"?>
<svg width="20px" height="20px" viewBox="0 0 20 20" version="1.1" xmlns="http://www.w3.org/2000/svg" xmlns:xlink="http://www.w3.org/1999/xlink">
    <!-- Generator: Sketch 58 (84663) - https://sketch.com -->
    <title>dashboard_header_settings_gray</title>
    <desc>Created with Sketch.</desc>
    <g id="Dashboard" stroke="none" stroke-width="1" fill="none" fill-rule="evenodd">
        <g id="Desktop-/-Calendar-" transform="translate(-797.000000, -54.000000)" fill="#606060" fill-rule="nonzero">
            <g id="Navbar" transform="translate(32.000000, 32.000000)">
                <g id="settings" transform="translate(753.000000, 14.000000)">
                    <g id="dashboard_header_settings_gray" transform="translate(12.000000, 8.000000)">
                        <path d="M7.76132609,1.01956438 C7.77794159,1.86866364 7.58275996,2.36995468 7.1757812,2.5234375 C6.3516137,2.8342536 5.5947862,3.2699307 4.9316406,3.8144531 C4.60355646,4.08384969 4.07399181,3.99986732 3.34294662,3.562506 C2.86900649,3.27890971 2.25491456,3.43326429 1.97135717,3.90722769 C1.96875135,3.91158331 1.96617872,3.9159587 1.96363951,3.92035349 L0.649568644,6.19470693 C0.387530096,6.64825084 0.519867534,7.22714859 0.95294698,7.52178136 C1.76538858,8.07450194 2.15216665,8.47023615 2.1132812,8.708984 C2.0386488,9.16721 2,9.591845 2,10 C2,10.408768 2.0398071,10.832626 2.1132812,11.291016 C2.15157022,11.5298934 1.76451024,11.9261463 0.952101258,12.4797746 C0.519384,12.7745991 0.387393179,13.353301 0.64943764,13.8066203 L1.9636222,16.0800713 C2.23999013,16.5582638 2.85169624,16.7218226 3.32986508,16.4454137 C3.33410776,16.4429612 3.33833236,16.4404775 3.34253853,16.4379629 C4.07259689,16.001505 4.60164654,15.9180173 4.9296875,16.1875 C5.5928951,16.732319 6.3514346,17.165567 7.1757812,17.476562 C7.58282618,17.6301248 7.77803165,18.1313925 7.76139761,18.9803651 C7.75053267,19.5325681 8.18941153,19.9889887 8.74161545,19.9998081 C8.74814476,19.999936 8.75467516,20 8.76120572,20 L11.23865,20 C11.7909385,20.0000068 12.2386568,19.5522885 12.2386568,19 C12.2386568,18.9934396 12.2385922,18.9868794 12.2384631,18.9803203 C12.2217532,18.1313861 12.4170052,17.6301334 12.824219,17.476562 C13.648925,17.165543 14.404903,16.73057 15.068359,16.185547 C15.3965643,15.9159294 15.9260966,15.9998046 16.6569559,16.4371727 C17.1308639,16.7207797 17.7449496,16.5665043 18.028552,16.0925936 C18.0312048,16.0881607 18.0338232,16.0837073 18.036407,16.0792338 L19.3492197,13.806255 C19.6109244,13.3530722 19.478993,12.7747499 19.046621,12.4799305 C18.2344556,11.9261433 17.8478216,11.5298384 17.886719,11.291016 C17.961351,10.83279 18,10.408155 18,10 C18,9.592457 17.96113,9.168374 17.886719,8.710938 C17.8479224,8.4724386 18.2352819,8.07561909 19.0487977,7.52047947 C19.4811081,7.22550859 19.6128388,6.64710035 19.3509213,6.19400061 L18.0363782,3.91992842 C17.7600106,3.44173547 17.1483042,3.27817657 16.6701352,3.5545855 C16.6658925,3.55703801 16.6616679,3.55952167 16.6574617,3.56203628 C15.9274022,3.9984947 15.3983523,4.08198261 15.070312,3.8125 C14.407106,3.2676813 13.648565,2.8344327 12.824219,2.5234375 C12.4171743,2.36987462 12.2219688,1.868607 12.2386025,1.01963462 C12.2494673,0.467431527 11.8105882,0.0110110695 11.2583842,0.000191890875 C11.2518551,6.39666934e-05 11.2453248,-1.19961903e-18 11.2387944,0 L8.7611217,0 C8.20884412,1.29905129e-05 7.76113469,0.447722425 7.76113469,1 C7.76113469,1.00652193 7.76119849,1.0130437 7.76132609,1.01956438 Z M10,2 C10.3981127,2 10.74038,2.28215568 10.8163268,2.67295716 L10.9678606,3.45270872 C11.0339755,3.79291814 11.2715299,4.07463816 11.5956868,4.19725927 L12.117188,4.3945312 L12.117188,4.3945312 C12.745852,4.63147 13.310672,4.9567546 13.800781,5.359375 L14.232793,5.71319487 C14.500885,5.93276349 14.8635415,5.99788585 15.1912768,5.88531018 L15.9383346,5.628699 C16.3145405,5.49947387 16.7295872,5.65466935 16.928711,5.99902345 C17.1277625,6.34325262 17.0549031,6.78027191 16.7549426,7.04130628 L16.1549192,7.56346414 C15.8945575,7.79003846 15.7694384,8.13485864 15.8239205,8.47567505 L15.912109,9.027344 L15.912109,9.027344 C15.973258,9.404235 16,9.718768 16,10 C16,10.281232 15.973259,10.595718 15.912109,10.970703 L15.8230968,11.5214056 C15.7679264,11.8627351 15.8929944,12.2083473 16.1538206,12.4353259 L16.7523516,12.9561853 C17.0527324,13.2175855 17.1258423,13.6551466 16.9267575,14 C16.727723,14.3447663 16.3121962,14.5000206 15.9358533,14.3702341 L15.1919639,14.1136945 C14.8638731,14.0005484 14.5005777,14.0656022 14.2321357,14.285567 L13.798828,14.640625 L13.798828,14.640625 C13.308719,15.043245 12.745852,15.36853 12.117188,15.605469 L11.5942352,15.8029202 C11.2697965,15.9254184 11.0319872,16.2072639 10.9658302,16.5476895 L10.8141875,17.3280014 C10.7383489,17.7182462 10.3965691,18 9.9990235,18 C9.60147789,18 9.2596981,17.7182462 9.18385948,17.3280014 L9.0321394,16.5472913 C8.96602446,16.2070819 8.72847014,15.9253618 8.40431322,15.8027407 L7.8828125,15.605469 L7.8828125,15.605469 C7.2541467,15.36853 6.6893282,15.043245 6.1992188,14.640625 L5.76720647,14.2868051 C5.49911446,14.0672366 5.1364581,14.0021143 4.8087229,14.11469 L4.06166612,14.3713009 C3.68546002,14.5005261 3.27041311,14.3453307 3.07128905,14.0009765 C2.87223293,13.6567398 2.94507238,13.2197133 3.245015,12.958645 L3.84598244,12.4355664 C4.10691298,12.208454 4.23193454,11.8626159 4.17654572,11.521153 L4.0878906,10.974609 L4.0878906,10.974609 C4.0276183,10.596088 4,10.280673 4,10 C4,9.718768 4.026742,9.404282 4.0878906,9.029297 L4.17683719,8.4790011 C4.23204344,8.13745031 4.10677651,7.79162859 3.84563821,7.56466722 L3.24597831,7.04348886 C2.94547701,6.78231621 2.87223342,6.3448029 3.07128905,6 C3.27033804,5.65520859 3.68585215,5.49988485 4.06226308,5.62956301 L4.80748541,5.8863012 C5.1358792,5.99943687 5.49945765,5.9340657 5.76787443,5.71362388 L6.1992188,5.359375 L6.1992188,5.359375 C6.6893282,4.9567546 7.2541467,4.6314701 7.8828125,4.3945312 L8.40431336,4.19725932 C8.7284702,4.07463818 8.96602445,3.79291819 9.03213938,3.45270882 L9.1836732,2.67295716 C9.25961999,2.28215568 9.60188732,2 10,2 Z M10,6 C7.8034768,6 6,7.8034768 6,10 C6,12.196523 7.8034768,14 10,14 C12.196523,14 14,12.196523 14,10 C14,7.8034768 12.196523,6 10,6 Z M10,8 C11.111477,8 12,8.888523 12,10 C12,11.111477 11.111477,12 10,12 C8.888523,12 8,11.111477 8,10 C8,8.888523 8.888523,8 10,8 Z" id="Shape"></path>
                    </g>
                </g>
            </g>
        </g>
    </g>
</svg>