<?xml version="1.0" encoding="UTF-8"?>
<svg width="11px" height="20px" viewBox="0 0 11 20" version="1.1" xmlns="http://www.w3.org/2000/svg" xmlns:xlink="http://www.w3.org/1999/xlink">
    <!-- Generator: Sketch 58 (84663) - https://sketch.com -->
    <title>landing_facebook_white</title>
    <desc>Created with Sketch.</desc>
    <g id="Landing" stroke="none" stroke-width="1" fill="none" fill-rule="evenodd">
        <g id="Desktop-/-Landing" transform="translate(-1023.000000, -3457.000000)" fill="#FFFFFF" fill-rule="nonzero">
            <g id="footer" transform="translate(0.000000, 3433.000000)">
                <g id="Group" transform="translate(1018.000000, 22.000000)">
                    <g transform="translate(5.000000, 0.000000)" id="landing_facebook_white">
                        <path d="M10.4058342,2.00416133 L7.81228218,2 C4.89851544,2 3.01551138,3.93189975 3.01551138,6.92202699 L3.01551138,9.191411 L0.407810826,9.191411 C0.182474538,9.191411 -5.40012479e-13,9.37409361 -5.40012479e-13,9.5994299 L-5.40012479e-13,12.8875087 C-5.40012479e-13,13.112845 0.182682605,13.2953195 0.407810826,13.2953195 L3.01551138,13.2953195 L3.01551138,21.5921892 C3.01551138,21.8175255 3.19798591,22 3.4233222,22 L6.82562966,22 C7.05096595,22 7.23344049,21.8173174 7.23344049,21.5921892 L7.23344049,13.2953195 L10.2824506,13.2953195 C10.5077869,13.2953195 10.6902614,13.112845 10.6902614,12.8875087 L10.6915098,9.5994299 C10.6915098,9.49123519 10.64844,9.38761795 10.5720795,9.31104938 C10.495719,9.23448082 10.3916857,9.191411 10.2834909,9.191411 L7.23344049,9.191411 L7.23344049,7.26762585 C7.23344049,6.34297723 7.45378317,5.87357864 8.65828158,5.87357864 L10.4054181,5.87295444 C10.6305463,5.87295444 10.8130208,5.69027184 10.8130208,5.46514362 L10.8130208,2.41197216 C10.8130208,2.18705201 10.6307543,2.00457747 10.4058342,2.00416133 Z"></path>
                    </g>
                </g>
            </g>
        </g>
    </g>
</svg>