<?xml version="1.0" encoding="UTF-8"?>
<svg width="19px" height="19px" viewBox="0 0 19 19" version="1.1" xmlns="http://www.w3.org/2000/svg" xmlns:xlink="http://www.w3.org/1999/xlink">
    <!-- Generator: Sketch 58 (84663) - https://sketch.com -->
    <title>landing_change_ language</title>
    <desc>Created with Sketch.</desc>
    <g id="Landing" stroke="none" stroke-width="1" fill="none" fill-rule="evenodd">
        <g id="Desktop-/-Landing" transform="translate(-1505.000000, -54.000000)" fill="#606060">
            <g id="Navbar" transform="translate(332.000000, 32.000000)">
                <g id="Group-18" transform="translate(1173.000000, 22.000000)">
                    <g id="landing_change_-language">
                        <polygon id="Fill-1" points="13.8086154 4.09482733 13.8276154 4.23004272 13.6161795 4.27215132 13.5879231 4.55942555 13.8407692 4.55942555 14.1778974 4.52807803 14.3508462 4.33063549 14.1662051 4.26139024 14.065359 4.15003639 13.913359 3.91422823 13.8407692 3.5815703 13.5552821 3.63631148 13.4753846 3.7551513 13.4753846 3.8866237 13.6122821 3.97598751"></polygon>
                        <polygon id="Fill-2" points="13.5669744 4.20664906 13.5820769 4.02558208 13.4144872 3.95586896 13.180641 4.00733502 13.0072051 4.27589431 13.0072051 4.44760382 13.2088974 4.44760382"></polygon>
                        <path d="M8.75412821,4.97208982 L8.70248718,5.09841561 L8.45353846,5.09841561 L8.45353846,5.22240205 L8.51248718,5.22240205 C8.51248718,5.22240205 8.51589744,5.24813508 8.51979487,5.2827577 L8.67423077,5.27012512 L8.76923077,5.21351245 L8.79407692,5.09841561 L8.91782051,5.08905815 L8.96507692,4.99220837 L8.85302564,4.97021832 L8.75412821,4.97208982 Z" id="Fill-3"></path>
                        <g id="Group-7">
                            <polygon id="Fill-4" points="8.1105641 5.19526539 8.10130769 5.3178482 8.28205128 5.30287626 8.30105128 5.18076132 8.19241026 5.09841561"></polygon>
                            <path d="M18.9488462,9.05334882 C18.9468974,8.78666103 18.9313077,8.52137686 18.905,8.26217503 C18.8173077,7.39567364 18.6024615,6.56426274 18.2789744,5.78385003 C18.2541282,5.72723736 18.2312308,5.6668817 18.2063846,5.61026903 C17.7762051,4.63241378 17.1691795,3.74205085 16.4291538,2.9728671 C16.3814103,2.92327253 16.3317179,2.87414583 16.2825128,2.82455126 C16.1417179,2.68606075 15.9989744,2.54897387 15.8484359,2.41890509 C14.1642564,0.946039862 11.9261538,0.0467873324 9.47515385,0.0467873324 C7.00320513,0.0467873324 4.74805128,0.962415428 3.05997436,2.4572707 C2.66633333,2.8063042 2.30435897,3.18668521 1.97746154,3.59233138 C0.738564103,5.13116675 0,7.05740122 0,9.14645562 C0,14.1653328 4.25161538,18.2461239 9.47515385,18.2461239 C13.1518974,18.2461239 16.3414615,16.2249111 17.9135897,13.2805843 C18.2482821,12.6517626 18.5108718,11.9813001 18.6857692,11.2776186 C18.7315641,11.0984231 18.7695641,10.9192276 18.8041538,10.736757 C18.8991538,10.2211606 18.9503077,9.68918867 18.9503077,9.14645562 C18.9503077,9.11557598 18.9488462,9.08422846 18.9488462,9.05334882 Z M17.1652821,5.41656948 L17.2208205,5.35621382 C17.2929231,5.49142921 17.3596667,5.62851609 17.4244615,5.76560298 L17.3348205,5.76373148 L17.1652821,5.78572153 L17.1652821,5.41656948 Z M15.7953333,3.82813954 L15.7972821,3.42062187 C15.9453846,3.57221283 16.0900769,3.72941827 16.2274615,3.89036669 L16.0559744,4.13506444 L15.4601538,4.12991783 L15.4221538,4.01107801 L15.7953333,3.82813954 Z M4.36561538,2.81753316 L4.36561538,2.80302909 L4.55610256,2.80302909 L4.57120513,2.74080193 L4.883,2.74080193 L4.883,2.87040284 L4.79384615,2.98362819 L4.36561538,2.98362819 L4.36561538,2.81753316 Z M4.67010256,3.22317933 C4.67010256,3.22317933 4.85864103,3.19229969 4.87569231,3.19229969 C4.89079487,3.19229969 4.87569231,3.37477029 4.87569231,3.37477029 L4.44746154,3.40050332 L4.36561538,3.30739653 L4.67010256,3.22317933 Z M17.7688974,6.83656501 L17.0761282,6.83656501 L16.6537436,6.53478672 L16.2084615,6.57502383 L16.2084615,6.83656501 L16.0671795,6.83656501 L15.9151795,6.73222926 L15.1464103,6.54414419 L15.1464103,6.0650419 L14.1701026,6.13849801 L13.8675641,6.29523558 L13.4792821,6.29523558 L13.2887949,6.27511703 L12.8186667,6.52776862 L12.8186667,6.99891706 L11.8579487,7.66423293 L11.9378462,7.94963565 L12.1336923,7.94963565 L12.0825385,8.22006643 L11.945641,8.26919313 L11.9378462,8.9766176 L12.7675128,9.88663122 L13.1309487,9.88663122 L13.1518974,9.83001854 L13.8027692,9.83001854 L13.989359,9.66392351 L14.358641,9.66392351 L14.5603333,9.85762307 L15.110359,9.91423574 L15.0377692,10.6141742 L15.6486923,11.6486422 L15.3271538,12.2390983 L15.3481026,12.5165472 L15.6009487,12.7579698 L15.6009487,13.4270287 L15.9322308,13.8546649 L15.9322308,14.4100305 L16.2196667,14.4100305 C14.6251282,16.2927528 12.1945897,17.4989302 9.47515385,17.4989302 C4.67935897,17.4989302 0.780461538,13.7522006 0.780461538,9.14645562 C0.780461538,7.98800127 1.02746154,6.88194873 1.47274359,5.87882832 L1.47274359,5.61728713 L1.78502564,5.25562105 C1.89366667,5.06005 2.00766667,4.86822194 2.13141026,4.68154048 L2.14651282,4.83313144 L1.78502564,5.25562105 C1.67297436,5.4582102 1.56823077,5.66501021 1.47469231,5.87882832 L1.47469231,6.35371974 L1.83471795,6.52028265 L1.83471795,7.18185553 L2.18110256,7.74845012 L2.46464103,7.79055872 L2.50069231,7.59685917 L2.16746154,7.10325281 L2.10266667,6.6246184 L2.29705128,6.6246184 L2.37889744,7.11775688 L2.86023077,7.79055872 L2.73453846,8.00811982 L3.04097436,8.45774608 L3.80048718,8.63647369 L3.80048718,8.51950536 L4.10302564,8.56161396 L4.07428205,8.76841397 L4.31397436,8.8100547 L4.68130769,8.90690447 L5.20112821,9.47724206 L5.86710256,9.52496514 L5.93189744,10.0457081 L5.47687179,10.3507616 L5.45592308,10.8153598 L5.38917949,11.1002946 L6.04784615,11.8914684 L6.09948718,12.1623671 C6.09948718,12.1623671 6.33723077,12.2241263 6.36548718,12.2241263 C6.39423077,12.2241263 6.90041026,12.5914069 6.90041026,12.5914069 L6.90041026,14.0226314 L7.08115385,14.0703545 L6.95741026,14.7300559 L7.26189744,15.1193265 L7.20684615,15.7715419 L7.60633333,16.4499582 L8.12225641,16.8808695 L8.63964103,16.890227 L8.68933333,16.7311501 L8.31079487,16.4223537 L8.33174359,16.2707627 L8.39994872,16.0822098 L8.41358974,15.8922532 L8.15635897,15.8852351 L8.02725641,15.7299012 L8.24015385,15.5305871 L8.26889744,15.3822713 L8.03066667,15.316769 L8.04430769,15.1778106 L8.38484615,15.1282161 L8.90223077,14.8910043 L9.07566667,14.585483 L9.61789744,13.9182957 L9.49415385,13.3975526 L9.65979487,13.1196359 L10.1586667,13.1346078 L10.4953077,12.8805526 L10.6039487,11.8750928 L10.9746923,11.42032 L11.0414359,11.1293028 L10.7008974,11.0235634 L10.4763077,10.6707869 L9.7114359,10.6633009 L9.10441026,10.4424647 L9.07566667,10.0255896 L8.87202564,9.68591356 L8.32394872,9.67842759 L8.00630769,9.1993253 L7.72423077,9.0659814 L7.70912821,9.21242576 L7.19710256,9.2414339 L7.00905128,8.99112167 L6.47412821,8.88725379 L6.03274359,9.3747778 L5.33997436,9.26342395 L5.28833333,8.51248726 L4.78215385,8.42827006 L4.98579487,8.0609895 L4.92684615,7.84904289 L4.26282051,8.27667911 L3.84433333,8.22708453 L3.69574359,7.91267366 L3.78538462,7.58937319 L4.01728205,7.17998403 L4.54830769,6.92218583 L5.57382051,6.92218583 L5.57041026,7.22209263 L5.93920513,7.38818766 L5.91094872,6.87493063 L6.17548718,6.61713243 L6.71187179,6.27886001 L6.74987179,6.04118036 L7.28479487,5.50593328 L7.85187179,5.20415499 L7.80266667,5.16391788 L8.18705128,4.81675587 L8.32784615,4.85184637 L8.39264103,4.92998122 L8.53879487,4.77464727 L8.57533333,4.75827171 L8.41505128,4.73628166 L8.25184615,4.68528347 L8.25184615,4.53556401 L8.33905128,4.46772237 L8.52758974,4.46772237 L8.61528205,4.50421649 L8.69128205,4.65066084 L8.78238462,4.63615677 L8.78238462,4.62305632 L8.80917949,4.63241378 L9.07566667,4.59404817 L9.11366667,4.46772237 L9.26615385,4.50421649 L9.26615385,4.64130338 L9.12487179,4.73487804 L9.14582051,4.88272601 L9.62764103,5.02542738 L9.62958974,5.03057398 L9.73969231,5.02168439 L9.74748718,4.82049886 L9.36505128,4.65440383 L9.34410256,4.55755405 L9.66174359,4.4532183 L9.67489744,4.16079747 L9.34215385,3.96709792 L9.32120513,3.47536305 L8.86617949,3.68918116 L8.70053846,3.68918116 L8.7424359,3.31441463 L8.12420513,3.17405263 L7.86697436,3.36026622 L7.86697436,3.9287323 L7.40658974,4.06769068 L7.22194872,4.43871423 L7.02025641,4.46959387 L7.02025641,3.99610606 L6.58812821,3.9376219 L6.37133333,3.80240651 L6.28364103,3.49548161 L7.05825641,3.06035941 L7.43923077,2.94900556 L7.47723077,3.19417118 L7.68817949,3.18481372 L7.70328205,3.06035941 L7.92446154,3.03135127 L7.92787179,2.98737118 L7.83287179,2.94900556 L7.81192308,2.81940465 L8.08425641,2.79741461 L8.24794872,2.6327232 L8.25720513,2.62196211 L8.25915385,2.62196211 L8.30884615,2.57236754 L8.87982051,2.50312228 L9.13266667,2.70945442 L8.47058974,3.04772683 L9.31146154,3.2395549 L9.42205128,2.96912412 L9.78938462,2.96912412 L9.9204359,2.73331596 L9.65979487,2.66921732 L9.65979487,2.37164988 L8.84328205,2.02448787 L8.28010256,2.08624715 L7.96246154,2.24719558 L7.98341026,2.63459469 L7.65017949,2.58733948 L7.59902564,2.37164988 L7.91861538,2.09373313 L7.33984615,2.0661286 L7.17469231,2.11572317 L7.10210256,2.30193676 L7.31889744,2.33702725 L7.27553846,2.54523088 L6.90625641,2.56722093 L6.84925641,2.70430781 L6.31433333,2.71881189 C6.31433333,2.71881189 6.30117949,2.42826255 6.27828205,2.42826255 C6.25733333,2.42826255 6.69676923,2.42077658 6.69676923,2.42077658 L7.01635897,2.12133765 L6.84146154,2.03899195 L6.61102564,2.25468155 L6.22664103,2.2326915 L5.99669231,1.9276381 L5.50561538,1.9276381 L4.99164103,2.29491866 L5.46176923,2.29491866 L5.50561538,2.42826255 L5.38382051,2.53587342 L5.90315385,2.55084536 L5.98305128,2.73144447 L5.39697436,2.70945442 L5.36871795,2.57096392 L5.00138462,2.49376482 L4.80505128,2.38989694 L4.3675641,2.39363993 C5.80230769,1.39005165 7.56638462,0.796320398 9.47515385,0.796320398 C11.6752564,0.796320398 13.6829231,1.5856227 15.2165641,2.8816318 L15.1137692,3.05848792 L14.7123333,3.21054675 L14.5432821,3.38599925 L14.5812821,3.59233138 L14.7883333,3.61993591 L14.9140256,3.91937484 L15.2701538,3.78041646 L15.3291026,4.18091603 L15.2224103,4.18091603 L14.9296154,4.13880743 L14.6041795,4.19167711 L14.2899487,4.61931333 L13.8388205,4.68715496 L13.7740256,5.05630702 L13.9645128,5.10028711 L13.9094615,5.33796676 L13.4622308,5.25187807 L13.053,5.33796676 L12.9672564,5.55505998 L13.0378974,6.0159152 L13.2775897,6.12352607 L13.6809744,6.12165457 L13.9533077,6.09826091 L14.0366154,5.88958941 L14.4633846,5.35948893 L14.7430256,5.41469798 L15.0187692,5.17514684 L15.0704103,5.36136042 L15.7495385,5.80209709 L15.6657436,5.90783647 L15.3593077,5.89333239 L15.4776923,6.05240932 L15.6657436,6.09264643 L15.8864359,6.00468624 L15.8830256,5.74875954 L15.9799744,5.70150433 L15.9020256,5.62103012 L15.4489487,5.37960748 L15.3291026,5.05630702 L15.7056923,5.05630702 L15.8255385,5.17140385 L16.1509744,5.43996314 L16.1646154,5.76373148 L16.4993077,6.1071505 L16.625,5.63740568 L16.8573846,5.51482287 L16.9007436,5.90081837 L17.1292308,6.13990163 L17.5823077,6.13288353 C17.67,6.34857314 17.7479487,6.56940935 17.8161538,6.79445642 L17.7688974,6.83656501 Z M5.16848718,4.18091603 L5.39502564,4.07658027 L5.60061538,4.12430335 L5.53046154,4.38911966 L5.30782051,4.45696129 L5.16848718,4.18091603 Z M6.37717949,4.80599479 L6.37717949,4.9777043 L5.85589744,4.9777043 L5.66151282,4.9267061 L5.71120513,4.80599479 L5.96015385,4.70727352 L6.30117949,4.70727352 L6.30117949,4.80599479 L6.37717949,4.80599479 Z M6.61492308,5.04554593 L6.61492308,5.21164096 L6.48533333,5.29211517 L6.32212821,5.32112332 L6.32212821,5.04554593 L6.61492308,5.04554593 Z M6.46828205,4.9777043 L6.46828205,4.78026175 L6.6475641,4.9355957 L6.46828205,4.9777043 Z M6.55012821,5.37820386 L6.55012821,5.54055591 L6.42638462,5.65939573 L6.14869231,5.65939573 L6.19253846,5.47832875 L6.32358974,5.46756767 L6.35038462,5.40534052 L6.55012821,5.37820386 Z M5.86125641,5.04554593 L6.14869231,5.04554593 L5.78135897,5.54055591 L5.62935897,5.46195319 L5.66151282,5.25374956 L5.86125641,5.04554593 Z M7.03730769,5.32112332 L7.03730769,5.48394323 L6.7615641,5.48394323 L6.6855641,5.37820386 L6.6855641,5.22801653 L6.70846154,5.22801653 L7.03730769,5.32112332 Z M6.78251282,5.09841561 L6.86241026,5.0198129 L6.99541026,5.09841561 L6.88920513,5.18263281 L6.78251282,5.09841561 Z M17.9096923,7.25671526 L17.9379487,7.22770711 C17.949641,7.27309083 17.9608462,7.32081391 17.9725385,7.3699406 L17.9096923,7.25671526 Z" id="Fill-6"></path>
                        </g>
                        <path d="M1.47274359,5.61728713 L1.47274359,5.87882832 C1.56823077,5.66501021 1.67297436,5.4582102 1.78502564,5.25562105 L1.47274359,5.61728713 Z" id="Fill-8"></path>
                    </g>
                </g>
            </g>
        </g>
    </g>
</svg>